<svg width="3010" height="600" viewBox="0 0 3010 600" fill="none" xmlns="http://www.w3.org/2000/svg">
<path d="M212.076 600C163.323 600 121.772 591.136 87.4227 573.407C53.6276 555.679 24.5418 531.856 0.165039 501.939L64.985 441.274C85.4836 466.205 107.921 485.042 132.298 497.784C157.229 510.526 185.484 516.898 217.063 516.898C254.182 516.898 282.159 508.587 300.996 491.967C319.833 475.346 329.251 452.909 329.251 424.654C329.251 401.939 322.603 383.934 309.306 370.637C296.01 357.341 272.464 347.368 238.669 340.72L187.146 331.579C130.636 321.053 88.2537 302.493 59.9988 275.9C31.744 249.307 17.6166 212.742 17.6166 166.205C17.6166 140.72 22.3257 117.729 31.744 97.2299C41.7163 76.1773 55.2897 58.7258 72.4642 44.8754C90.1927 30.4709 111.522 19.3906 136.453 11.6343C161.384 3.87812 189.362 0 220.387 0C264.154 0 302.104 7.75623 334.237 23.2687C366.37 38.2271 393.794 60.1108 416.508 88.9197L350.858 147.091C335.899 127.701 317.617 112.188 296.01 100.554C274.403 88.9197 247.533 83.1025 215.4 83.1025C182.159 83.1025 156.398 89.7507 138.115 103.047C119.833 116.343 110.691 135.734 110.691 161.219C110.691 185.596 118.171 203.878 133.129 216.066C148.087 227.701 171.356 236.565 202.935 242.659L254.459 253.463C312.63 264.543 355.013 283.38 381.605 309.972C408.752 336.565 422.326 373.13 422.326 419.668C422.326 446.814 417.617 471.468 408.198 493.629C398.78 515.789 384.93 534.903 366.647 550.97C348.918 566.482 327.035 578.67 300.996 587.535C274.957 595.845 245.317 600 212.076 600Z" fill="#354C0F"/>
<path d="M1061.93 146.26H1057.77L1012.07 240.166L884.921 472.022L757.774 240.166L712.068 146.26H707.913V590.028H618.162V9.97232H729.519L884.921 304.986H889.907L1045.31 9.97232H1151.68V590.028H1061.93V146.26Z" fill="#354C0F"/>
<path d="M1378.1 590.028V9.97232H1627.4C1681.14 9.97232 1722.69 25.7618 1752.06 57.3407C1781.42 88.9197 1796.1 131.302 1796.1 184.488C1796.1 237.673 1781.42 280.055 1752.06 311.634C1722.69 343.213 1681.14 359.003 1627.4 359.003H1472V590.028H1378.1ZM1472 276.731H1621.59C1645.41 276.731 1663.97 270.637 1677.26 258.449C1690.56 245.706 1697.21 227.701 1697.21 204.432V164.543C1697.21 141.274 1690.56 123.546 1677.26 111.357C1663.97 98.615 1645.41 92.2438 1621.59 92.2438H1472V276.731Z" fill="#354C0F"/>
<path d="M2152.65 600C2103.9 600 2062.34 591.136 2028 573.407C1994.2 555.679 1965.11 531.856 1940.74 501.939L2005.56 441.274C2026.06 466.205 2048.49 485.042 2072.87 497.784C2097.8 510.526 2126.06 516.898 2157.64 516.898C2194.75 516.898 2222.73 508.587 2241.57 491.967C2260.41 475.346 2269.82 452.909 2269.82 424.654C2269.82 401.939 2263.18 383.934 2249.88 370.637C2236.58 357.341 2213.04 347.368 2179.24 340.72L2127.72 331.579C2071.21 321.053 2028.83 302.493 2000.57 275.9C1972.32 249.307 1958.19 212.742 1958.19 166.205C1958.19 140.72 1962.9 117.729 1972.32 97.2299C1982.29 76.1773 1995.86 58.7258 2013.04 44.8754C2030.77 30.4709 2052.1 19.3906 2077.03 11.6343C2101.96 3.87812 2129.93 0 2160.96 0C2204.73 0 2242.68 7.75623 2274.81 23.2687C2306.94 38.2271 2334.37 60.1108 2357.08 88.9197L2291.43 147.091C2276.47 127.701 2258.19 112.188 2236.58 100.554C2214.98 88.9197 2188.11 83.1025 2155.97 83.1025C2122.73 83.1025 2096.97 89.7507 2078.69 103.047C2060.41 116.343 2051.26 135.734 2051.26 161.219C2051.26 185.596 2058.74 203.878 2073.7 216.066C2088.66 227.701 2111.93 236.565 2143.51 242.659L2195.03 253.463C2253.2 264.543 2295.59 283.38 2322.18 309.972C2349.33 336.565 2362.9 373.13 2362.9 419.668C2362.9 446.814 2358.19 471.468 2348.77 493.629C2339.35 515.789 2325.5 534.903 2307.22 550.97C2289.49 566.482 2267.61 578.67 2241.57 587.535C2215.53 595.845 2185.89 600 2152.65 600Z" fill="#354C0F"/>
<path d="M2714.97 269.252L2650.98 146.26H2648.49V590.028H2558.73V9.97232H2663.44L2852.92 330.748L2916.91 453.74H2919.4V9.97232H3009.15V590.028H2904.44L2714.97 269.252Z" fill="#354C0F"/>
</svg>
