<svg width="903" height="180" viewBox="0 0 903 180" fill="none" xmlns="http://www.w3.org/2000/svg">
<path d="M63.5734 180C48.9474 180 36.482 177.341 26.1773 172.022C16.0388 166.704 7.31302 159.557 0 150.582L19.446 132.382C25.5956 139.861 32.3269 145.512 39.6399 149.335C47.1191 153.158 55.5956 155.069 65.0693 155.069C76.205 155.069 84.5983 152.576 90.2493 147.59C95.9003 142.604 98.7258 135.873 98.7258 127.396C98.7258 120.582 96.7313 115.18 92.7424 111.191C88.7535 107.202 81.6898 104.211 71.5512 102.216L56.0942 99.4737C39.1413 96.3158 26.4266 90.7479 17.9501 82.7701C9.47368 74.7922 5.23546 63.8227 5.23546 49.8615C5.23546 42.2161 6.6482 35.3186 9.47368 29.169C12.4654 22.8532 16.5374 17.6177 21.6897 13.4626C27.0083 9.14127 33.4072 5.81717 40.8864 3.4903C48.3657 1.16343 56.759 0 66.0665 0C79.1967 0 90.5817 2.32687 100.222 6.98061C109.861 11.4681 118.089 18.0332 124.903 26.6759L105.208 44.1274C100.72 38.3102 95.2355 33.6565 88.7535 30.1662C82.2715 26.6759 74.2105 24.9308 64.5706 24.9308C54.5983 24.9308 46.8698 26.9252 41.385 30.9141C35.9003 34.903 33.1579 40.7202 33.1579 48.3656C33.1579 55.6787 35.4017 61.1634 39.8892 64.8199C44.3767 68.3102 51.3573 70.9695 60.831 72.7978L76.2881 76.0388C93.7396 79.3629 106.454 85.0138 114.432 92.9917C122.576 100.97 126.648 111.939 126.648 125.9C126.648 134.044 125.235 141.44 122.41 148.089C119.584 154.737 115.429 160.471 109.945 165.291C104.626 169.945 98.0609 173.601 90.2493 176.26C82.4377 178.753 73.5457 180 63.5734 180Z" fill="#031208"/>
<path d="M318.529 43.8781H317.283L303.571 72.0499L265.427 141.607L227.283 72.0499L213.571 43.8781H212.324V177.008H185.399V2.9917H218.806L265.427 91.4958H266.923L313.543 2.9917H345.454V177.008H318.529V43.8781Z" fill="#031208"/>
<path d="M413.379 177.008V2.9917H488.171C504.293 2.9917 516.759 7.72854 525.567 17.2022C534.376 26.6759 538.781 39.3906 538.781 55.3463C538.781 71.3019 534.376 84.0166 525.567 93.4903C516.759 102.964 504.293 107.701 488.171 107.701H441.551V177.008H413.379ZM441.551 83.0194H486.426C493.573 83.0194 499.141 81.1911 503.13 77.5346C507.119 73.7119 509.113 68.3102 509.113 61.3296V49.3629C509.113 42.3823 507.119 37.0637 503.13 33.4072C499.141 29.5845 493.573 27.6731 486.426 27.6731H441.551V83.0194Z" fill="#031208"/>
<path d="M645.745 180C631.119 180 618.654 177.341 608.349 172.022C598.211 166.704 589.485 159.557 582.172 150.582L601.618 132.382C607.767 139.861 614.499 145.512 621.812 149.335C629.291 153.158 637.767 155.069 647.241 155.069C658.377 155.069 666.77 152.576 672.421 147.59C678.072 142.604 680.898 135.873 680.898 127.396C680.898 120.582 678.903 115.18 674.914 111.191C670.925 107.202 663.862 104.211 653.723 102.216L638.266 99.4737C621.313 96.3158 608.598 90.7479 600.122 82.7701C591.646 74.7922 587.407 63.8227 587.407 49.8615C587.407 42.2161 588.82 35.3186 591.646 29.169C594.637 22.8532 598.709 17.6177 603.862 13.4626C609.18 9.14127 615.579 5.81717 623.058 3.4903C630.537 1.16343 638.931 0 648.238 0C661.369 0 672.754 2.32687 682.393 6.98061C692.033 11.4681 700.26 18.0332 707.075 26.6759L687.38 44.1274C682.892 38.3102 677.407 33.6565 670.925 30.1662C664.443 26.6759 656.382 24.9308 646.742 24.9308C636.77 24.9308 629.042 26.9252 623.557 30.9141C618.072 34.903 615.33 40.7202 615.33 48.3656C615.33 55.6787 617.574 61.1634 622.061 64.8199C626.549 68.3102 633.529 70.9695 643.003 72.7978L658.46 76.0388C675.911 79.3629 688.626 85.0138 696.604 92.9917C704.748 100.97 708.82 111.939 708.82 125.9C708.82 134.044 707.407 141.44 704.582 148.089C701.756 154.737 697.601 160.471 692.116 165.291C686.798 169.945 680.233 173.601 672.421 176.26C664.609 178.753 655.718 180 645.745 180Z" fill="#031208"/>
<path d="M814.441 80.7756L795.244 43.8781H794.496V177.008H767.571V2.9917H798.984L855.826 99.2244L875.022 136.122H875.77V2.9917H902.696V177.008H871.283L814.441 80.7756Z" fill="#031208"/>
</svg>
