<svg width="2000" height="2000" viewBox="0 0 2000 2000" fill="none" xmlns="http://www.w3.org/2000/svg">
<rect width="2000" height="2000" fill="#031208"/>
<path d="M604.915 1097C590.248 1097 577.748 1094.33 567.415 1089C557.248 1083.67 548.498 1076.5 541.165 1067.5L560.665 1049.25C566.832 1056.75 573.582 1062.42 580.915 1066.25C588.415 1070.08 596.915 1072 606.415 1072C617.582 1072 625.998 1069.5 631.665 1064.5C637.332 1059.5 640.165 1052.75 640.165 1044.25C640.165 1037.42 638.165 1032 634.165 1028C630.165 1024 623.082 1021 612.915 1019L597.415 1016.25C580.415 1013.08 567.665 1007.5 559.165 999.5C550.665 991.5 546.415 980.5 546.415 966.5C546.415 958.833 547.832 951.917 550.665 945.75C553.665 939.417 557.748 934.167 562.915 930C568.248 925.667 574.665 922.333 582.165 920C589.665 917.667 598.082 916.5 607.415 916.5C620.582 916.5 631.998 918.833 641.665 923.5C651.332 928 659.582 934.583 666.415 943.25L646.665 960.75C642.165 954.917 636.665 950.25 630.165 946.75C623.665 943.25 615.582 941.5 605.915 941.5C595.915 941.5 588.165 943.5 582.665 947.5C577.165 951.5 574.415 957.333 574.415 965C574.415 972.333 576.665 977.833 581.165 981.5C585.665 985 592.665 987.667 602.165 989.5L617.665 992.75C635.165 996.083 647.915 1001.75 655.915 1009.75C664.082 1017.75 668.165 1028.75 668.165 1042.75C668.165 1050.92 666.748 1058.33 663.915 1065C661.082 1071.67 656.915 1077.42 651.415 1082.25C646.082 1086.92 639.498 1090.58 631.665 1093.25C623.832 1095.75 614.915 1097 604.915 1097Z" fill="#FCFCFC"/>
<path d="M860.579 960.5H859.329L845.579 988.75L807.329 1058.5L769.079 988.75L755.329 960.5H754.079V1094H727.079V919.5H760.579L807.329 1008.25H808.829L855.579 919.5H887.579V1094H860.579V960.5Z" fill="#FCFCFC"/>
<path d="M955.692 1094V919.5H1030.69C1046.86 919.5 1059.36 924.25 1068.19 933.75C1077.03 943.25 1081.44 956 1081.44 972C1081.44 988 1077.03 1000.75 1068.19 1010.25C1059.36 1019.75 1046.86 1024.5 1030.69 1024.5H983.942V1094H955.692ZM983.942 999.75H1028.94C1036.11 999.75 1041.69 997.917 1045.69 994.25C1049.69 990.417 1051.69 985 1051.69 978V966C1051.69 959 1049.69 953.667 1045.69 950C1041.69 946.167 1036.11 944.25 1028.94 944.25H983.942V999.75Z" fill="#FCFCFC"/>
<path d="M1188.7 1097C1174.04 1097 1161.54 1094.33 1151.2 1089C1141.04 1083.67 1132.29 1076.5 1124.95 1067.5L1144.45 1049.25C1150.62 1056.75 1157.37 1062.42 1164.7 1066.25C1172.2 1070.08 1180.7 1072 1190.2 1072C1201.37 1072 1209.79 1069.5 1215.45 1064.5C1221.12 1059.5 1223.95 1052.75 1223.95 1044.25C1223.95 1037.42 1221.95 1032 1217.95 1028C1213.95 1024 1206.87 1021 1196.7 1019L1181.2 1016.25C1164.2 1013.08 1151.45 1007.5 1142.95 999.5C1134.45 991.5 1130.2 980.5 1130.2 966.5C1130.2 958.833 1131.62 951.917 1134.45 945.75C1137.45 939.417 1141.54 934.167 1146.7 930C1152.04 925.667 1158.45 922.333 1165.95 920C1173.45 917.667 1181.87 916.5 1191.2 916.5C1204.37 916.5 1215.79 918.833 1225.45 923.5C1235.12 928 1243.37 934.583 1250.2 943.25L1230.45 960.75C1225.95 954.917 1220.45 950.25 1213.95 946.75C1207.45 943.25 1199.37 941.5 1189.7 941.5C1179.7 941.5 1171.95 943.5 1166.45 947.5C1160.95 951.5 1158.2 957.333 1158.2 965C1158.2 972.333 1160.45 977.833 1164.95 981.5C1169.45 985 1176.45 987.667 1185.95 989.5L1201.45 992.75C1218.95 996.083 1231.7 1001.75 1239.7 1009.75C1247.87 1017.75 1251.95 1028.75 1251.95 1042.75C1251.95 1050.92 1250.54 1058.33 1247.7 1065C1244.87 1071.67 1240.7 1077.42 1235.2 1082.25C1229.87 1086.92 1223.29 1090.58 1215.45 1093.25C1207.62 1095.75 1198.7 1097 1188.7 1097Z" fill="#FCFCFC"/>
<path d="M1357.87 997.5L1338.62 960.5H1337.87V1094H1310.87V919.5H1342.37L1399.37 1016L1418.62 1053H1419.37V919.5H1446.37V1094H1414.87L1357.87 997.5Z" fill="#FCFCFC"/>
</svg>
