<svg width="186" height="22" viewBox="0 0 186 22" fill="none" xmlns="http://www.w3.org/2000/svg">
<path d="M13.8439 1.60357H21.0081V1.88044L19.8545 3.03409C19.7189 3.15316 19.6113 3.30077 19.5395 3.46631C19.4677 3.63186 19.4335 3.81125 19.4392 3.99161V22H19.1623L5.61832 9.56371V18.8621C5.60786 19.0403 5.63889 19.2184 5.70895 19.3826C5.77901 19.5467 5.88621 19.6924 6.0221 19.8081L7.17576 20.9617V21.2386H0V20.9617L1.15366 19.8081C1.29165 19.6935 1.40104 19.5484 1.47313 19.3842C1.54523 19.22 1.57804 19.0412 1.56898 18.8621V0.703723H1.82278L15.3783 13.1054V3.99161C15.3934 3.81342 15.3668 3.63416 15.3008 3.46798C15.2347 3.3018 15.1309 3.15326 14.9976 3.03409L13.8439 1.88044V1.60357ZM40.9895 15.6665C40.9895 19.4851 38.3015 21.2386 33.906 21.2386H22.6002V20.9617L23.7538 19.8081C23.8935 19.6923 24.0038 19.5453 24.076 19.379C24.1481 19.2126 24.1801 19.0316 24.1692 18.8506V3.99161C24.1801 3.8106 24.1481 3.62956 24.076 3.4632C24.0038 3.29683 23.8935 3.14982 23.7538 3.03409L22.6002 1.88044V1.60357H34.0099C38.14 1.60357 40.1935 3.56476 40.1935 6.91033C40.1597 7.8735 39.7983 8.79631 39.169 9.52627C38.5397 10.2562 37.6802 10.7497 36.7325 10.925V10.925C39.3744 11.3749 41.0357 12.9439 41.0357 15.6203M28.5761 9.37913H33.4561C34.9559 9.37913 35.7634 8.66387 35.7634 7.29103C35.7634 5.9182 35.0828 5.1914 33.4561 5.1914H28.5761V9.37913ZM36.5133 15.1474C36.5133 13.4169 35.4635 12.7362 33.3754 12.7362H28.5761V17.5354H33.3754C35.152 17.5354 36.5133 16.924 36.5133 15.1474ZM53.0683 17.9046C49.7343 17.9046 47.4615 15.3435 47.4615 11.5134C47.4615 7.45254 49.9765 5.02989 53.2298 5.02989C54.124 4.94018 55.0225 5.15129 55.7831 5.62981C56.5437 6.10832 57.123 6.82689 57.4292 7.67174L57.7291 7.75249L59.3789 1.04982L59.102 0.934452C58.5705 1.40199 57.883 1.65311 57.1754 1.63818C56.2178 1.63818 54.7296 1.26901 52.9414 1.26901C47.1731 1.26901 42.6739 5.14525 42.6739 11.4903C42.6739 17.8353 47.1039 21.6424 52.8491 21.6424C54.2195 21.6925 55.5852 21.4557 56.8587 20.9471C58.1322 20.4385 59.2853 19.6694 60.2441 18.689L57.683 15.5742C57.1574 16.303 56.4631 16.8936 55.6594 17.2954C54.8558 17.6973 53.9667 17.8983 53.0683 17.8815M73.5804 1.89198L74.7341 3.04562C74.8705 3.16463 74.9794 3.31194 75.0531 3.4773C75.1268 3.64267 75.1636 3.82211 75.1609 4.00315V13.6592C75.1609 16.474 73.7419 17.8584 71.25 17.8584C68.7581 17.8584 67.293 16.5433 67.293 13.6592V3.99161C67.2834 3.80964 67.3171 3.62799 67.3913 3.46156C67.4655 3.29513 67.5781 3.14864 67.7198 3.03409L68.8735 1.88044V1.6151H61.3631V1.89198L62.5168 3.04562C62.6564 3.16135 62.7668 3.30836 62.8389 3.47473C62.9111 3.6411 62.943 3.82213 62.9321 4.00315V13.5438C62.9321 18.9775 66.3931 21.6193 71.25 21.6193C76.1069 21.6193 79.5794 18.9428 79.5794 13.5438V3.99161C79.5685 3.8106 79.6004 3.62956 79.6726 3.4632C79.7448 3.29683 79.8551 3.14982 79.9947 3.03409L81.1484 1.88044V1.6151H73.5804V1.89198ZM96.9074 18.516V12.8516C96.9074 9.48296 95.2346 7.52176 92.362 7.52176C91.4437 7.4994 90.5378 7.73791 89.7496 8.2096C88.9614 8.6813 88.3231 9.36684 87.9089 10.1867V7.77556H82.3136V8.07551L83.4673 9.22916C83.8249 9.58679 83.8826 9.81752 83.8826 10.5212V18.5968C83.8826 19.3005 83.8826 19.5312 83.4673 19.8888L82.3136 21.0425V21.3194H89.5586V21.0425L88.4049 19.8888C88.0473 19.5312 87.9896 19.3005 87.9896 18.5968V13.9937C87.9896 12.4017 88.7741 11.1442 90.5392 11.1442C92.0274 11.1442 92.7196 12.2286 92.7196 13.7861V21.2386H98.4187V20.9617L97.265 19.8081C96.9074 19.4504 96.8612 19.2197 96.8612 18.516M105.652 18.516V7.77556H99.9992V8.07551L101.153 9.22916C101.51 9.58679 101.568 9.81752 101.568 10.5212V18.5968C101.568 19.3005 101.568 19.5312 101.153 19.8888L99.9992 21.0425V21.3194H107.29V21.0425L106.137 19.8888C105.779 19.5312 105.71 19.3005 105.71 18.5968M103.599 5.76822C103.92 5.77298 104.239 5.71279 104.537 5.59127C104.834 5.46975 105.104 5.2894 105.331 5.06102C105.557 4.83264 105.735 4.56095 105.853 4.26221C105.972 3.96348 106.029 3.64385 106.021 3.3225C106.028 3.00263 105.969 2.68478 105.85 2.38802C105.73 2.09125 105.552 1.82167 105.326 1.59545C105.099 1.36922 104.83 1.191 104.533 1.07147C104.236 0.951946 103.918 0.893569 103.599 0.899843C103.259 0.866743 102.916 0.905059 102.592 1.01233C102.269 1.1196 101.971 1.29344 101.718 1.5227C101.465 1.75195 101.263 2.03154 101.125 2.34349C100.987 2.65544 100.916 2.99285 100.916 3.33403C100.916 3.67522 100.987 4.01263 101.125 4.32458C101.263 4.63653 101.465 4.91611 101.718 5.14537C101.971 5.37462 102.269 5.54847 102.592 5.65574C102.916 5.76301 103.259 5.80132 103.599 5.76822ZM122.749 7.76403H117.581L115.193 14.2706H115.124L112.389 7.77556H107.29V8.07551C108.203 8.78235 108.925 9.7064 109.39 10.7635L114.881 21.8385H115.181L120.638 10.7635C121.086 9.69335 121.816 8.76449 122.749 8.07551V7.76403ZM135.993 14.5013C135.993 14.9743 135.993 15.4127 135.993 15.655H126.683C126.824 16.4247 127.251 17.1127 127.878 17.5812C128.505 18.0497 129.285 18.2641 130.064 18.1814C130.593 18.2022 131.121 18.11 131.612 17.9111C132.104 17.7122 132.547 17.4111 132.913 17.0278L135.22 19.7735C133.653 21.0042 131.696 21.6306 129.706 21.5385C125.264 21.5385 122.438 18.839 122.438 14.6167C122.374 13.6567 122.515 12.694 122.852 11.793C123.19 10.892 123.716 10.0734 124.395 9.39196C125.074 8.71052 125.891 8.18192 126.791 7.8415C127.691 7.50108 128.653 7.35667 129.614 7.41793C134.078 7.41793 136.04 10.3597 136.04 14.3975M131.829 13.1515C131.853 12.8152 131.807 12.4776 131.693 12.1602C131.579 11.8428 131.4 11.5526 131.168 11.3083C130.935 11.064 130.654 10.8709 130.343 10.7413C130.032 10.6117 129.697 10.5486 129.36 10.5558C128.656 10.5434 127.975 10.8089 127.466 11.2947C126.956 11.7806 126.658 12.4477 126.637 13.1515H131.829ZM143.181 10.3828V7.77556H137.585V8.07551L138.739 9.22916C139.097 9.58679 139.154 9.81752 139.154 10.5212V18.5968C139.154 19.3005 139.154 19.5312 138.739 19.8888L137.585 21.0425V21.3194H144.842V21.0425L143.688 19.8888C143.342 19.5312 143.285 19.3005 143.285 18.5968V14.4436C143.285 12.4248 144.277 11.3403 145.869 11.3403C146.61 11.3368 147.324 11.6175 147.865 12.1248L148.949 7.914C148.407 7.64825 147.81 7.51387 147.207 7.52176C146.309 7.53855 145.437 7.83394 144.714 8.36712C143.991 8.90029 143.451 9.64494 143.169 10.4982M157.59 12.99C155.744 12.6901 154.36 12.6901 154.36 11.5941C154.36 10.9712 154.879 10.5558 156.09 10.5558C157.728 10.5558 159.251 11.0981 159.816 12.344L160.105 12.4248L161.408 7.29103L161.132 7.18721C160.63 7.63549 159.982 7.88566 159.309 7.89093C158.397 7.89093 157.555 7.5333 155.848 7.5333C152.894 7.5333 150.08 8.59465 150.08 11.9287C150.08 14.5359 152.156 15.5396 154.14 15.8741C156.125 16.2087 157.498 16.2549 157.498 17.3739C157.498 18.0199 156.932 18.5275 155.732 18.5275C154.111 18.5421 152.533 17.996 151.268 16.9816L149.341 19.8542C151.121 21.1127 153.266 21.7493 155.444 21.6654C159.32 21.6654 161.72 19.9581 161.72 16.9586C161.72 14.3744 159.528 13.3707 157.509 13.0246M176.348 19.8427L177.502 20.9963V21.2732H171.895V19.4158C171.473 20.1361 170.859 20.7248 170.121 21.116C169.384 21.5072 168.552 21.6854 167.719 21.6308C167.177 21.6737 166.631 21.6042 166.117 21.4268C165.603 21.2494 165.131 20.9679 164.73 20.5998C164.329 20.2317 164.009 19.7849 163.789 19.2875C163.569 18.79 163.454 18.2524 163.45 17.7084C163.45 14.7205 165.504 13.3361 169.992 13.2438C171.434 13.2438 171.815 12.8977 171.815 12.0902C171.815 11.2826 171.157 10.7174 169.415 10.7174C168.795 10.7214 168.183 10.8537 167.618 11.1058C167.052 11.358 166.544 11.7246 166.127 12.1825L163.935 9.59832C164.738 8.87594 165.677 8.32037 166.697 7.9639C167.717 7.60742 168.798 7.45713 169.876 7.52176C174.133 7.52176 175.979 9.28684 175.979 12.7362V18.5045C175.979 19.2082 176.037 19.4389 176.395 19.7965M171.861 15.182C171.294 15.3201 170.713 15.3936 170.13 15.4012C168.273 15.5165 167.627 16.1972 167.627 17.1201C167.617 17.3232 167.649 17.5262 167.723 17.7157C167.797 17.9053 167.91 18.077 168.055 18.2198C168.2 18.3625 168.373 18.4729 168.564 18.5439C168.755 18.6148 168.958 18.6446 169.161 18.6314C169.507 18.667 169.858 18.6293 170.188 18.5207C170.519 18.4121 170.824 18.2351 171.081 18.0011C171.339 17.7671 171.545 17.4815 171.685 17.1627C171.826 16.844 171.897 16.4992 171.895 16.151L171.861 15.182ZM184.747 19.7965C184.378 19.4389 184.32 19.2082 184.32 18.5045V0H178.644V0.276875L179.798 1.43052C180.155 1.78815 180.213 2.01888 180.213 2.71106V18.516C180.213 19.2197 180.155 19.4504 179.798 19.8081L178.644 20.9617V21.2386H185.878V20.9617L184.747 19.7965Z" fill="#020D06"/>
</svg>
