<svg width="117" height="48" viewBox="0 0 117 48" fill="none" xmlns="http://www.w3.org/2000/svg">
<path d="M108.061 33.6201C107.748 33.6201 107.533 33.4035 107.533 33.092V17.6163H102.276C101.964 17.6163 101.748 17.4006 101.748 17.0887V14.954C101.748 14.6414 101.964 14.4251 102.276 14.4251H116.269C116.581 14.4251 116.796 14.6416 116.796 14.954V17.0886C116.796 17.4002 116.581 17.6163 116.269 17.6163H111.013V33.0917C111.013 33.4035 110.796 33.6201 110.485 33.6201H108.061ZM67.7921 25.8938L65.0326 17.9766L62.2483 25.8938H67.7921ZM73.9125 32.9948C74.0331 33.3075 73.8407 33.6201 73.5046 33.6201H71.009C70.6487 33.6201 70.4325 33.4527 70.3121 33.1152L68.8967 29.0378H61.1451L59.7272 33.1152C59.6081 33.4528 59.3913 33.6201 59.032 33.6201H56.6807C56.3682 33.6201 56.1518 33.3074 56.272 32.9948L62.7761 14.906C62.8964 14.569 63.1123 14.4259 63.4716 14.4259H66.6878C67.0482 14.4259 67.2882 14.5691 67.4082 14.906L73.9125 32.9948ZM92.5557 31.0284C94.0911 31.0284 95.1236 30.2858 95.9639 29.0136L92.0764 24.8383C90.5876 25.6787 89.6271 26.5173 89.6271 28.1973C89.6274 29.8532 90.9707 31.0284 92.5557 31.0284ZM93.6356 16.9683C92.3879 16.9683 91.668 17.7608 91.668 18.8163C91.668 19.632 92.0991 20.3519 93.0835 21.4079C94.7874 20.4235 95.5078 19.824 95.5078 18.7686C95.5078 17.7841 94.884 16.9683 93.6356 16.9683ZM104.269 32.9482C104.58 33.2844 104.389 33.6201 104.004 33.6201H100.956C100.548 33.6201 100.332 33.5237 100.068 33.2114L98.244 31.1969C97.0201 32.8285 95.3147 34.0518 92.4832 34.0518C88.9793 34.0518 86.2184 31.9406 86.2184 28.3183C86.2184 25.5342 87.7073 24.0463 89.9636 22.799C88.8587 21.5274 88.3557 20.1837 88.3557 19.0087C88.3557 16.0327 90.4436 13.9937 93.5871 13.9937C96.8033 13.9937 98.7717 15.8898 98.7717 18.6964C98.7717 21.0957 97.0441 22.4381 95.2194 23.4466L97.9079 26.3507L99.4197 23.7105C99.6115 23.3991 99.8277 23.2787 100.211 23.2787H102.539C102.923 23.2787 103.139 23.5433 102.9 23.9509L100.211 28.5569L104.269 32.9482ZM80.3166 33.6201C80.6286 33.6201 80.8457 33.4035 80.8457 33.092V17.6163H86.101C86.413 17.6163 86.6288 17.4006 86.6288 17.0887V14.954C86.6288 14.6414 86.413 14.4251 86.101 14.4251H72.1081C71.7956 14.4251 71.5801 14.6416 71.5801 14.954V17.0886C71.5801 17.4002 71.7957 17.6163 72.1081 17.6163H77.3635V33.0917C77.3635 33.4035 77.5802 33.6201 77.8918 33.6201H80.3166Z" fill="#020D06"/>
<path d="M9.28602 42.9558C13.3564 46.1068 18.4653 48 24.0083 48C30.0742 48 35.6041 45.7478 39.8244 42.0508C39.8756 42.0056 39.8503 41.9757 39.7999 42.0056C37.9061 43.2705 32.5085 46.0316 24.0085 46.0316C16.6217 46.0316 11.9535 44.3833 9.31731 42.9118C9.26687 42.8869 9.24819 42.9247 9.28602 42.9558ZM25.638 44.1826C31.5461 44.1826 38.0384 42.572 41.9213 39.3837C42.9839 38.5151 43.996 37.3589 44.9024 35.8051C45.4243 34.9111 45.9347 33.849 46.3503 32.8049C46.3688 32.754 46.3374 32.7292 46.2991 32.7865C42.6882 38.1005 32.232 41.4151 21.4354 41.4151C13.8039 41.4151 5.59261 38.9746 2.37782 34.3145C2.34617 34.2715 2.31453 34.2899 2.33379 34.3394C5.3286 40.7051 14.4141 44.1826 25.638 44.1826ZM19.1828 33.6222C6.89512 33.6222 1.10122 27.899 0.0502092 23.9933C0.0372482 23.9368 0 23.9491 0 23.9999C0 25.3148 0.131595 27.0116 0.358003 28.1379C0.466012 28.6861 0.912173 29.5465 1.56629 30.2323C4.54172 33.3339 11.9598 37.6799 24.8069 37.6799C42.3104 37.6799 46.3125 31.849 47.1298 29.9315C47.7142 28.5601 48.0169 26.0819 48.0169 24.0001C48.0169 23.4963 48.0043 23.0939 47.9853 22.6989C47.9853 22.6348 47.9482 22.6295 47.9353 22.692C47.0606 27.384 32.1059 33.6222 19.1828 33.6222ZM2.31453 13.7039C1.61043 15.1013 0.82997 17.4588 0.597957 18.679C0.496254 19.2018 0.539574 19.4528 0.722896 19.843C2.19566 22.9679 9.64519 27.9679 27.022 27.9679C37.6232 27.9679 45.8584 25.3633 47.1926 20.6103C47.4383 19.7353 47.4514 18.8115 47.1358 17.5667C46.7832 16.1757 46.1228 14.5537 45.5638 13.4147C45.5454 13.3775 45.5128 13.383 45.5194 13.4269C45.727 19.6609 28.3433 23.6787 19.5723 23.6787C10.0716 23.6787 2.14545 19.8932 2.14545 15.1132C2.14545 14.654 2.2405 14.1946 2.35913 13.7165C2.37104 13.6728 2.33368 13.6656 2.31453 13.7039ZM39.8633 6.04985C39.9642 6.20796 40.0145 6.37669 40.0145 6.60381C40.0145 9.27042 31.8537 13.9878 18.8627 13.9878C9.31731 13.9878 7.53021 10.4466 7.53021 8.19448C7.53021 7.38946 7.83894 6.56575 8.51887 5.72919C8.556 5.67945 8.52447 5.6603 8.48162 5.69731C7.24157 6.74826 6.10217 7.93081 5.10266 9.20737C4.62509 9.81108 4.32862 10.3459 4.32862 10.6663C4.32862 15.3333 16.0304 18.7172 26.9719 18.7172C38.6303 18.7172 43.8333 14.9111 43.8333 11.5663C43.8333 10.3709 43.368 9.67305 42.1777 8.32013C41.4051 7.44002 40.6743 6.72339 39.9007 6.01797C39.8633 5.98714 39.8373 6.01225 39.8633 6.04985ZM36.2892 3.38382C32.6912 1.22704 28.513 0 24.0085 0C19.4726 0 15.1686 1.2699 11.5576 3.48378C10.4745 4.15043 9.86483 4.68466 9.86483 5.3714C9.86483 7.39576 14.5956 9.5724 22.9886 9.5724C31.2945 9.5724 37.7367 7.18826 37.7367 4.89334C37.7367 4.34556 37.2579 3.96231 36.2892 3.38382Z" fill="#020D06"/>
</svg>
