<svg width="95" height="36" viewBox="0 0 95 36" fill="none" xmlns="http://www.w3.org/2000/svg">
<path d="M15.3497 35.3617L25.9026 7.88298H20.5621L12.9513 27.6702L5.34041 7.88298H0L10.5529 35.3617H15.3497ZM37.5747 7.46809C29.9318 7.46809 24.8153 13.1809 24.8153 21.734C24.8153 30.2553 29.9318 36 37.5747 36C45.2175 36 50.3341 30.2872 50.3341 21.734C50.3341 13.1809 45.2175 7.46809 37.5747 7.46809ZM37.5747 30.9894C32.714 30.9894 29.8039 27.5106 29.8039 21.7021C29.8039 15.8936 32.714 12.4149 37.5747 12.4149C42.4354 12.4149 45.3455 15.8936 45.3455 21.7021C45.3455 27.5426 42.4354 30.9894 37.5747 30.9894ZM53.0203 35.3617H58.0089V0H53.0203V35.3617ZM86.5657 7.9149H69.1374V0H64.1168V7.9149H60.5992V12.8936H64.1168V35.3617H69.1055V12.8936H86.5337C88.3245 12.8936 89.7955 14.3617 89.7955 16.1489V17.7766C88.0367 16.5319 85.7662 15.8298 83.176 15.8298C76.8762 15.8298 72.4632 19.9787 72.4632 25.883C72.4632 31.7872 76.8762 35.9362 83.176 35.9362C85.7662 35.9362 88.0047 35.234 89.7955 33.9894V35.3298H94.8161V16.117C94.8161 11.617 91.1067 7.9149 86.5657 7.9149ZM83.208 30.9894C80.4578 30.9894 77.4838 29.6489 77.4838 25.9149C77.4838 22.1809 80.4258 20.8404 83.208 20.8404C85.9581 20.8404 88.9321 22.1809 88.9321 25.9149C88.9001 29.6489 85.9581 30.9894 83.208 30.9894Z" fill="#020D06"/>
</svg>
