<svg width="121" height="32" viewBox="0 0 121 32" fill="none" xmlns="http://www.w3.org/2000/svg">
<path d="M19.3162 9.03486C18.889 7.20391 17.8749 5.92 16.2013 5.21809C15.225 4.81917 14.1785 4.6204 13.1239 4.63358C12.1121 4.61013 11.1085 4.81932 10.1904 5.24504C9.27226 5.67075 8.46416 6.30162 7.82838 7.08901C6.42706 8.72263 5.76512 11.1381 5.76512 14.4103C5.76512 17.6826 6.51449 20.0181 8.01322 21.3819C9.38255 22.7036 11.2108 23.4431 13.1139 23.4452C14.9848 23.4452 16.541 22.9006 17.71 21.849C18.9298 20.7412 19.7167 19.2364 19.9306 17.6026H13.7384V13.0864H24.8864V27.4168H21.1871L20.64 24.0697C19.551 25.3186 18.6143 26.2104 17.72 26.7549C16.2413 27.6516 14.4478 28.1187 12.2671 28.1187C8.72262 28.1187 5.84256 26.9123 3.5445 24.4568C1.16901 22.0039 0 18.6143 0 14.3329C0 10.009 1.20648 6.54447 3.58197 3.93418C5.95746 1.32388 9.11229 0 13.0465 0C16.4336 0 19.1621 0.856776 21.232 2.57033C22.2193 3.36092 23.0401 4.33924 23.6472 5.44879C24.2543 6.55834 24.6356 7.77715 24.769 9.03486H19.3162Z" fill="#020D06"/>
<path d="M45.3612 25.0042C43.6876 27.0699 41.1573 28.0816 37.7676 28.0816C34.378 28.0816 31.8502 27.0824 30.1741 25.0042C28.498 22.9259 27.6762 20.448 27.6762 17.5655C27.6762 14.7229 28.493 12.23 30.1741 10.1667C31.8477 8.06351 34.3805 7.05186 37.7676 7.05186C41.1548 7.05186 43.6876 8.10098 45.3612 10.1667C47.0373 12.27 47.8591 14.7229 47.8591 17.5655C47.8541 20.448 46.9973 22.9409 45.3612 25.0042ZM41.2072 22.1616C42.0265 21.0725 42.4137 19.5538 42.4137 17.568C42.4137 15.5822 42.024 14.0709 41.2072 13.0118C40.3904 11.9527 39.2214 11.4132 37.7427 11.4132C36.224 11.4132 35.0549 11.9602 34.2456 13.0118C33.4363 14.0634 33.0391 15.6196 33.0391 17.568C33.0391 19.5663 33.4288 21.065 34.2456 22.1616C35.0624 23.2582 36.2439 23.7577 37.7427 23.7577C39.2414 23.7577 40.4154 23.2132 41.2072 22.1616Z" fill="#020D06"/>
<path d="M67.4182 25.0042C65.7421 27.0699 63.2117 28.0816 59.8246 28.0816C56.4375 28.0816 53.9046 27.0824 52.231 25.0042C50.5574 22.9259 49.7331 20.448 49.7331 17.5655C49.7331 14.7229 50.55 12.23 52.231 10.1667C53.9046 8.06351 56.435 7.05186 59.8246 7.05186C63.2142 7.05186 65.7421 8.10098 67.4182 10.1667C69.0918 12.27 69.9161 14.7229 69.9161 17.5655C69.9111 20.448 69.0918 22.9409 67.4182 25.0042ZM63.2892 22.1616C64.106 21.0725 64.4957 19.5538 64.4957 17.568C64.4957 15.5822 64.106 14.0709 63.2892 13.0118C62.4724 11.9527 61.3034 11.4132 59.8221 11.4132C58.3034 11.4132 57.1369 11.9602 56.3251 13.0118C55.5133 14.0634 55.1186 15.6196 55.1186 17.568C55.1186 19.5663 55.5083 21.065 56.3251 22.1616C57.1419 23.2582 58.3109 23.7577 59.8221 23.7577C61.3034 23.7577 62.4699 23.2132 63.2892 22.1616Z" fill="#020D06"/>
<path d="M83.5046 7.99291C84.428 8.52013 85.2051 9.26971 85.7652 10.1736V0.749035H91.0232V27.4265H85.9975V24.6913C85.372 25.7383 84.5042 26.6198 83.4671 27.2616C82.5304 27.8062 81.3639 28.041 79.9701 28.041C77.672 28.041 75.7245 27.1059 74.1275 25.2358C72.5289 23.3674 71.752 20.9894 71.752 18.0319C71.752 14.6415 72.5305 11.9929 74.0875 10.0861C75.6462 8.14029 77.7095 7.16611 80.3323 7.16611C81.4443 7.15548 82.5392 7.44084 83.5046 7.99291ZM84.7535 22.051C85.5328 20.9619 85.8826 19.5531 85.8826 17.8446C85.8826 15.4316 85.2581 13.7181 84.0516 12.6665C83.3234 12.048 82.3967 11.7128 81.4413 11.7223C79.9226 11.7223 78.8335 12.3068 78.1316 13.4358C77.4297 14.5649 77.08 16.0061 77.08 17.6822C77.08 19.5132 77.4322 20.9545 78.1716 22.0435C78.8727 23.1326 79.9626 23.678 81.4413 23.6797C82.8826 23.6797 84.0116 23.1326 84.7535 22.0435V22.051Z" fill="#020D06"/>
<path d="M97.6426 15.4989V27.6512L95.1098 27.6112V0.883802H105.586C108.545 0.883802 110.804 1.42917 112.363 2.51992C113.921 3.61066 114.701 5.40165 114.701 7.89288C114.701 9.56896 114.348 10.9303 113.702 11.9045C113.055 12.8787 111.896 13.7254 110.377 14.4373C111.097 14.6647 111.743 15.0814 112.248 15.6438C112.689 16.1756 113.032 16.7822 113.259 17.4348C113.492 18.0968 119.254 29.8193 119.412 30.209C119.608 30.6254 119.871 31.0068 120.191 31.3381C120.381 31.4954 120.591 31.6264 120.816 31.7277V31.96L118.01 32C117.469 31.4788 117.056 30.8393 116.804 30.1316C116.492 29.2723 110.534 17.4748 110.222 17.0451C109.907 16.6263 109.492 16.2924 109.016 16.0735C108.517 15.826 107.975 15.68 107.419 15.6438C106.826 15.565 106.227 15.5258 105.628 15.5264H97.6351L97.6426 15.4989ZM105.508 13.3183C106.388 13.3199 107.264 13.2151 108.119 13.0061C108.875 12.8381 109.59 12.5204 110.222 12.0718C110.808 11.6411 111.288 11.0813 111.623 10.4357C111.983 9.68374 112.154 8.85568 112.123 8.02277C112.145 7.17177 111.957 6.32841 111.576 5.56734C111.244 4.93857 110.745 4.41319 110.135 4.04863C109.501 3.66348 108.801 3.39923 108.071 3.26929C107.276 3.1134 106.467 3.03559 105.656 3.03698H97.6426V13.3183H105.508Z" fill="#020D06"/>
<path d="M120.723 16.044C120.255 16.2781 119.844 16.6104 119.516 17.0182C119.167 17.4453 111.523 29.2853 111.066 30.1022C110.676 30.8041 110.287 31.5434 109.859 31.9731L107.054 31.9331V31.6983C107.275 31.5892 107.484 31.4587 107.679 31.3086C107.987 30.9682 108.249 30.5886 108.458 30.1796C108.613 29.7899 116.089 17.9899 116.479 17.4079C116.978 16.6585 116.978 16.6585 117.413 16.1215C117.843 15.6219 119.911 15.6943 120.725 15.6943L120.723 16.044Z" fill="#020D06"/>
</svg>
