<svg width="151" height="34" viewBox="0 0 151 34" fill="none" xmlns="http://www.w3.org/2000/svg">
<path fill-rule="evenodd" clip-rule="evenodd" d="M0.046509 23.6298L0.852764 21.3919C0.981329 21.0084 1.27114 21.1348 1.38881 21.2067C1.61326 21.3396 1.77451 21.4595 2.06433 21.6294C4.43951 23.1308 6.64037 23.1461 7.32677 23.1461C9.10489 23.1461 10.2075 22.2047 10.2075 20.9343V20.8689C10.2075 19.4874 8.50783 18.9644 6.54449 18.363L6.10867 18.2235C3.41317 17.4565 0.53026 16.3474 0.53026 12.9349V12.8652C0.53026 9.62712 3.14297 7.36743 6.88225 7.36743L7.29191 7.36307C9.48841 7.36307 11.6108 8.00153 13.1492 8.93418C13.2887 9.02134 13.4238 9.18259 13.3454 9.39614L12.5173 11.634C12.3713 12.0154 11.9725 11.7626 11.9725 11.7626C10.3675 10.9262 8.59145 10.4707 6.78201 10.4312C5.19564 10.4312 4.17584 11.2723 4.17584 12.4141V12.4861C4.17584 13.8175 5.92346 14.3862 7.94999 15.0465L8.29864 15.1554C10.9854 16.0053 13.8531 17.1819 13.8531 20.4179V20.4854C13.8531 23.9828 11.3123 26.1554 7.22654 26.1554C5.21962 26.1554 3.29986 25.8459 1.26897 24.7673C0.88545 24.545 0.506291 24.3533 0.131492 24.0809C0.0922684 24.0242 -0.0798779 23.9567 0.044329 23.6298H0.046509ZM59.8772 23.6298L60.6856 21.3919C60.8033 21.0258 61.1454 21.1609 61.2195 21.2067C61.4418 21.344 61.6074 21.4595 61.895 21.6294C64.2745 23.1308 66.471 23.1461 67.164 23.1461C68.9356 23.1461 70.0404 22.2047 70.0404 20.9343V20.8689C70.0404 19.4874 68.3429 18.9644 66.3795 18.363L65.9437 18.2235C63.2439 17.4565 60.3609 16.3474 60.3609 12.9349V12.8652C60.3609 9.62712 62.9758 7.36743 66.7151 7.36743L67.1226 7.36307C69.3191 7.36307 71.4437 8.00153 72.9843 8.93418C73.1194 9.02134 73.2567 9.18259 73.1804 9.39614C73.1041 9.59444 72.4243 11.4249 72.3524 11.634C72.202 12.0154 71.8076 11.7626 71.8076 11.7626C70.2019 10.9259 68.425 10.4703 66.6149 10.4312C65.0285 10.4312 64.0087 11.2723 64.0087 12.4141V12.4861C64.0087 13.8175 65.7541 14.3862 67.7828 15.0465L68.1315 15.1554C70.8183 16.0053 73.6838 17.1819 73.6838 20.4179V20.4854C73.6838 23.9828 71.1452 26.1554 67.0594 26.1554C65.0503 26.1554 63.1305 25.8459 61.1018 24.7673C60.7183 24.545 60.3392 24.3533 59.9622 24.0809C59.923 24.0242 59.7508 23.9567 59.8772 23.6298ZM104.134 13.1071C104.47 14.2315 104.635 15.467 104.635 16.7723C104.635 18.0797 104.47 19.3109 104.134 20.4353C103.827 21.5195 103.301 22.529 102.587 23.401C101.872 24.2479 100.975 24.9227 99.9633 25.3752C98.9174 25.8546 97.6884 26.0943 96.3069 26.0943C94.9253 26.0943 93.692 25.8546 92.6504 25.3752C91.6386 24.9227 90.7418 24.2479 90.0268 23.401C89.3138 22.5291 88.7866 21.5206 88.4775 20.4375C88.1349 19.2462 87.9661 18.0118 87.9763 16.7723C87.9763 15.4648 88.1441 14.2315 88.4775 13.1071C88.813 11.974 89.3338 10.976 90.0246 10.1436C90.7414 9.29321 91.6383 8.6129 92.6504 8.15189C93.6942 7.66378 94.921 7.41755 96.3069 7.41755C97.6927 7.41755 98.9196 7.66378 99.9633 8.15189C101.005 8.63782 101.89 9.3068 102.587 10.1436C103.28 10.976 103.803 11.974 104.134 13.1071ZM100.726 16.7723C100.726 14.7959 100.36 13.2422 99.6321 12.1527C98.913 11.0718 97.8235 10.5489 96.3069 10.5489C94.7902 10.5489 93.7094 11.0718 92.999 12.1527C92.2865 13.2422 91.9226 14.7959 91.9226 16.7723C91.9226 18.7465 92.2865 20.3111 93.0034 21.4093C93.7094 22.5032 94.7902 23.0327 96.3069 23.0327C97.8235 23.0327 98.913 22.5011 99.6321 21.4093C100.356 20.3111 100.726 18.7465 100.726 16.7723ZM132.153 22.5032L132.989 24.8174C133.098 25.1007 132.852 25.2249 132.852 25.2249C131.56 25.7261 129.766 26.0834 128.021 26.0834C125.062 26.0834 122.796 25.2314 121.283 23.5492C119.78 21.8713 119.013 19.5898 119.013 16.7592C119.013 15.4496 119.202 14.2097 119.573 13.0875C119.943 11.9544 120.499 10.9564 121.231 10.124C121.991 9.2682 122.929 8.58852 123.979 8.13228C125.068 7.64635 126.35 7.40229 127.779 7.40229C128.744 7.40229 129.603 7.46113 130.34 7.57008C131.126 7.69211 132.174 7.97539 132.617 8.14753C132.697 8.17804 132.922 8.287 132.83 8.55066C132.508 9.45933 132.288 10.052 131.989 10.8801C131.858 11.2331 131.593 11.1154 131.593 11.1154C130.47 10.7624 129.394 10.6012 127.988 10.6012C126.3 10.6012 125.031 11.1634 124.203 12.2638C123.367 13.3729 122.898 14.8264 122.891 16.7592C122.885 18.8794 123.417 20.4505 124.358 21.4224C125.297 22.3921 126.609 22.8824 128.261 22.8824C128.93 22.8824 129.562 22.8388 130.13 22.7495C130.693 22.6601 131.22 22.4858 131.717 22.2919C131.717 22.2919 132.037 22.172 132.153 22.5032ZM149.607 12.4643C150.35 15.0661 149.962 17.3127 149.949 17.4369C149.921 17.7333 149.616 17.7376 149.616 17.7376L138.069 17.7289C138.141 19.483 138.561 20.7251 139.411 21.5684C140.246 22.3943 141.57 22.9238 143.364 22.926C146.105 22.9325 147.275 22.3812 148.105 22.074C148.105 22.074 148.421 21.9606 148.541 22.2744L149.293 24.3903C149.446 24.7455 149.324 24.8697 149.195 24.9416C148.472 25.3404 146.717 26.0856 143.379 26.0943C141.76 26.1009 140.35 25.8699 139.189 25.4188C138.085 25.01 137.091 24.3515 136.284 23.4947C135.513 22.6541 134.94 21.651 134.608 20.5595C134.251 19.3636 134.075 18.1207 134.088 16.8725C134.088 15.5651 134.255 14.323 134.593 13.1877C134.931 12.0437 135.456 11.0348 136.155 10.1871C136.88 9.32198 137.789 8.62962 138.816 8.16061C139.875 7.6616 141.187 7.41755 142.629 7.41755C143.865 7.41755 144.994 7.68339 145.933 8.0887C146.656 8.39813 147.384 8.95815 148.129 9.76005C148.6 10.2656 149.317 11.3726 149.607 12.4643ZM138.123 14.8765H146.36C146.275 13.8175 146.068 12.8674 145.593 12.1527C144.87 11.0718 143.872 10.477 142.357 10.477C140.84 10.477 139.764 11.0718 139.051 12.1527C138.585 12.8674 138.287 13.7782 138.123 14.8765ZM57.1163 12.4643C57.8572 15.0661 57.4759 17.3127 57.4628 17.4369C57.4323 17.7333 57.1272 17.7376 57.1272 17.7376L45.5781 17.7289C45.6522 19.483 46.0706 20.7251 46.9226 21.5684C47.7572 22.3943 49.0799 22.9238 50.8733 22.926C53.6145 22.9325 54.7891 22.3812 55.6171 22.074C55.6171 22.074 55.9331 21.9606 56.0507 22.2744L56.8047 24.3903C56.9572 24.7455 56.8352 24.8697 56.7088 24.9416C55.981 25.3404 54.2247 26.0856 50.8907 26.0943C49.2695 26.1009 47.8596 25.8699 46.7004 25.4188C45.5964 25.0095 44.6016 24.351 43.7935 23.4947C43.0244 22.6533 42.4533 21.6504 42.1221 20.5595C41.7621 19.364 41.5851 18.121 41.597 16.8725C41.597 15.5651 41.7669 14.323 42.1025 13.1877C42.4165 12.0923 42.9487 11.0717 43.6671 10.1871C44.3919 9.32272 45.3 8.63047 46.3256 8.16061C47.3889 7.6616 48.7007 7.41755 50.1389 7.41755C51.2756 7.41486 52.401 7.6432 53.4468 8.0887C54.1702 8.39813 54.898 8.95815 55.6411 9.76005C56.1118 10.2656 56.8287 11.3726 57.1163 12.4643ZM45.6304 14.8765H53.8717C53.7845 13.8175 53.5775 12.8674 53.1046 12.1527C52.3855 11.0718 51.3832 10.477 49.8687 10.477C48.3521 10.477 47.2735 11.0718 46.5653 12.1527C46.0946 12.8674 45.7982 13.7782 45.6304 14.8765ZM25.2649 14.3252C25.2649 14.3252 26.1757 14.4058 27.1694 14.5496V14.0615C27.1694 12.5209 26.849 11.7953 26.2193 11.3094C25.5743 10.8169 24.6111 10.5619 23.3647 10.5619C23.3647 10.5619 20.5537 10.5271 18.3311 11.7343C18.2287 11.7953 18.1437 11.8302 18.1437 11.8302C18.1437 11.8302 17.8647 11.9282 17.7645 11.6428L16.9474 9.44626C16.821 9.13029 17.0498 8.98647 17.0498 8.98647C18.0892 8.17586 20.6082 7.68557 20.6082 7.68557C21.6308 7.50589 22.6664 7.41042 23.7047 7.40012C26.0101 7.40012 27.7948 7.93617 29.0085 8.99737C30.2244 10.0629 30.8433 11.78 30.8433 14.0942L30.8498 24.6583C30.8498 24.6583 30.8738 24.9634 30.584 25.0331C30.584 25.0331 30.1591 25.1508 29.7777 25.2401C29.392 25.3295 28.0018 25.6128 26.8665 25.8045C25.7071 25.9988 24.5337 26.0965 23.3582 26.0965C22.236 26.0965 21.2074 25.9919 20.3009 25.7849C19.4562 25.608 18.6562 25.261 17.9497 24.7651C17.3059 24.2976 16.7891 23.6766 16.4462 22.9587C16.091 22.233 15.9123 21.3462 15.9123 20.322C15.9123 19.3174 16.1237 18.4218 16.5312 17.6592C16.9408 16.9009 17.503 16.258 18.209 15.7547C18.9384 15.2411 19.7539 14.8625 20.6169 14.6368C21.5169 14.3971 22.4735 14.2729 23.4628 14.2729C24.1884 14.2729 24.7942 14.2881 25.2649 14.3252ZM20.6692 22.44C20.6627 22.4379 21.7043 23.2572 24.0555 23.1134C25.7072 23.0131 27.1715 22.6994 27.1715 22.6994V17.4478C27.1715 17.4478 25.6941 17.2059 24.0359 17.182C21.6847 17.1536 20.6823 18.0187 20.6888 18.0165C19.9959 18.509 19.6581 19.239 19.6581 20.2501C19.6581 20.8973 19.7736 21.4028 20.0068 21.7558C20.1528 21.989 20.216 22.0761 20.6692 22.44ZM118.411 8.37416C118.302 8.69012 117.742 10.2721 117.54 10.7973C117.466 10.9978 117.344 11.135 117.119 11.1111C117.119 11.1111 116.457 10.9585 115.851 10.9585C115.435 10.9585 114.84 11.0108 114.304 11.1764C113.766 11.3417 113.277 11.6356 112.879 12.0328C112.456 12.4403 112.114 13.0134 111.865 13.7325C111.613 14.4559 111.482 15.6065 111.482 16.7614V25.3644C111.482 25.4103 111.473 25.4559 111.456 25.4984C111.439 25.541 111.413 25.5797 111.381 25.6123C111.348 25.6449 111.31 25.6708 111.267 25.6884C111.225 25.7061 111.179 25.7152 111.133 25.7152H108.102C108.056 25.7158 108.01 25.7072 107.967 25.69C107.924 25.6728 107.884 25.6472 107.851 25.6149C107.818 25.5825 107.792 25.5439 107.773 25.5013C107.755 25.4587 107.745 25.4129 107.745 25.3665V8.141C107.745 7.94706 107.886 7.79235 108.08 7.79235H111.037C111.233 7.79235 111.373 7.94706 111.373 8.141V9.54868C111.815 8.95597 112.608 8.43299 113.325 8.11049C114.044 7.78363 114.849 7.54393 116.302 7.63109C117.058 7.67685 118.041 7.88387 118.239 7.96014C118.278 7.97566 118.313 7.99876 118.343 8.0281C118.373 8.05743 118.396 8.09241 118.412 8.13097C118.428 8.16953 118.436 8.2109 118.436 8.25266C118.436 8.29442 118.428 8.33572 118.411 8.37416ZM89.9309 0.392229C90.0115 0.424915 90.2316 0.531689 90.1444 0.793177L89.2576 3.21848C89.1835 3.40152 89.1355 3.51048 88.7586 3.39717C88.26 3.24035 87.7406 3.15954 87.218 3.15747C86.7604 3.15747 86.3463 3.2163 85.9802 3.33833C85.6139 3.45562 85.2818 3.66057 85.0127 3.9354C84.6546 4.2815 84.3778 4.70274 84.2021 5.16875C83.7772 6.38903 83.6138 7.68993 83.592 7.77273H87.2833C87.5949 7.77273 87.693 7.91655 87.6625 8.14535L87.231 10.5467C87.1613 10.8953 86.8453 10.8823 86.8453 10.8823H83.0407L80.4411 25.6041C80.2175 26.9244 79.8777 28.2223 79.4256 29.4828C79.0181 30.5484 78.5976 31.3263 77.922 32.0693C77.3455 32.7343 76.6123 33.2451 75.7887 33.5555C74.989 33.8496 74.0172 34 72.956 34C72.4504 34 71.9056 33.9891 71.2628 33.8366C70.9046 33.7547 70.5517 33.6514 70.206 33.5271C70.0643 33.477 69.9488 33.2962 70.0316 33.0652C70.1101 32.8364 70.7943 30.9646 70.8858 30.7183C71.0035 30.422 71.3042 30.5353 71.3042 30.5353C71.5091 30.6224 71.6529 30.6791 71.9253 30.7336C72.202 30.7881 72.5724 30.836 72.8535 30.836C73.3569 30.836 73.8145 30.775 74.2133 30.6399C74.6927 30.4852 74.976 30.2041 75.2679 29.8293C75.573 29.4348 75.8214 28.901 76.0764 28.1841C76.3313 27.4584 76.5645 26.4996 76.765 25.3382L79.3537 10.8844H76.8042C76.4991 10.8844 76.3945 10.7406 76.4294 10.5096L76.8565 8.10831C76.924 7.75966 77.2487 7.77273 77.2487 7.77273H79.8658L80.0074 6.99263C80.3997 4.6741 81.1776 2.91123 82.3281 1.75415C83.4852 0.588345 85.1304 0 87.218 0C87.815 0 88.3424 0.0392197 88.7891 0.119845C89.2271 0.20265 89.5605 0.278917 89.9309 0.392229ZM38.3393 25.3644C38.3393 25.5605 38.2042 25.7152 38.0081 25.7152H34.9465C34.7504 25.7152 34.6174 25.5583 34.6174 25.3665V0.714732C34.6174 0.525153 34.7525 0.36826 34.9443 0.36826H38.0081C38.2042 0.36826 38.3393 0.525152 38.3393 0.71691V25.3644Z" fill="#020D06"/>
</svg>
