<svg width="115" height="36" viewBox="0 0 115 36" fill="none" xmlns="http://www.w3.org/2000/svg">
<path d="M14.2965 12.8246V16.6767H23.5039C23.2221 18.8376 22.5018 20.4191 21.4056 21.5309C20.059 22.8776 17.9607 24.3495 14.2965 24.3495C8.62802 24.3495 4.19657 19.7771 4.19657 14.1086C4.19657 8.44012 8.62802 3.86773 14.2965 3.86773C17.35 3.86773 19.5892 5.07347 21.2334 6.62369L23.9424 3.91471C21.6562 1.69116 18.587 0 14.2965 0C6.52974 0 0 6.32617 0 14.093C0 21.8597 6.52974 28.1859 14.2965 28.1859C18.4931 28.1859 21.6562 26.8079 24.1303 24.2399C26.667 21.7032 27.4656 18.1173 27.4656 15.2361C27.4656 14.3435 27.403 13.5136 27.262 12.8246H14.2965Z" fill="#020D06"/>
<path d="M38.9743 9.69315C33.9478 9.69315 29.8452 13.5139 29.8452 18.7909C29.8452 24.021 33.9478 27.8887 38.9743 27.8887C44.0008 27.8887 48.1034 24.0366 48.1034 18.7909C48.1034 13.5139 44.0008 9.69315 38.9743 9.69315ZM38.9743 24.3028C36.2183 24.3028 33.8382 22.0323 33.8382 18.7909C33.8382 15.5182 36.2183 13.279 38.9743 13.279C41.7303 13.279 44.1104 15.5182 44.1104 18.7909C44.1104 22.0323 41.7303 24.3028 38.9743 24.3028Z" fill="#020D06"/>
<path d="M83.7274 11.7288H83.5865C82.6939 10.664 80.9714 9.69315 78.7948 9.69315C74.2538 9.69315 70.2921 13.6548 70.2921 18.7909C70.2921 23.8957 74.2538 27.8887 78.7948 27.8887C80.9714 27.8887 82.6939 26.9179 83.5865 25.8218H83.7274V27.0901C83.7274 30.5664 81.864 32.4298 78.8731 32.4298C76.4304 32.4298 74.9115 30.676 74.2851 29.1884L70.8088 30.629C71.811 33.0405 74.4573 36 78.8731 36C83.5551 36 87.5168 33.244 87.5168 26.5264V10.1629H83.7274V11.7288ZM79.1393 24.3028C76.3834 24.3028 74.2851 21.954 74.2851 18.7909C74.2851 15.5809 76.3834 13.279 79.1393 13.279C81.864 13.279 83.9936 15.6279 83.9936 18.8223C84.0092 22.001 81.864 24.3028 79.1393 24.3028Z" fill="#020D06"/>
<path d="M59.3318 9.69315C54.3053 9.69315 50.2027 13.5139 50.2027 18.7909C50.2027 24.021 54.3053 27.8887 59.3318 27.8887C64.3583 27.8887 68.4609 24.0366 68.4609 18.7909C68.4609 13.5139 64.3583 9.69315 59.3318 9.69315ZM59.3318 24.3028C56.5758 24.3028 54.1957 22.0323 54.1957 18.7909C54.1957 15.5182 56.5758 13.279 59.3318 13.279C62.0877 13.279 64.4679 15.5182 64.4679 18.7909C64.4679 22.0323 62.0877 24.3028 59.3318 24.3028Z" fill="#020D06"/>
<path d="M90.6485 0.375729H94.5789V27.8883H90.6485V0.375729Z" fill="#020D06"/>
<path d="M106.716 24.3028C104.68 24.3028 103.239 23.379 102.3 21.5469L114.467 16.5204L114.06 15.4869C113.308 13.4513 110.991 9.69315 106.277 9.69315C101.595 9.69315 97.6962 13.373 97.6962 18.7909C97.6962 23.8957 101.548 27.8887 106.716 27.8887C110.881 27.8887 113.292 25.3363 114.295 23.8644L111.194 21.7974C110.161 23.3007 108.751 24.3028 106.716 24.3028ZM106.434 13.1068C108.047 13.1068 109.425 13.9367 109.879 15.1111L101.658 18.5091C101.658 14.6883 104.367 13.1068 106.434 13.1068Z" fill="#020D06"/>
</svg>
