<svg width="110" height="44" viewBox="0 0 110 44" fill="none" xmlns="http://www.w3.org/2000/svg">
<path d="M18.7128 35.8132L19.5633 31.4185C33.4561 40.2078 51.3183 40.2078 65.2111 31.4185L66.0617 35.8132C52.1689 46.7289 32.6056 46.7289 18.7128 35.8132ZM73.7169 15.541C75.2763 15.8245 76.9775 15.6828 78.3951 14.8322C79.5292 14.1234 80.238 12.9893 80.5216 11.7134C80.8051 10.4375 80.9469 9.30343 81.0886 8.02756H86.4756C86.4756 8.59461 86.4756 9.30343 86.4756 10.0122C86.3339 11.7134 85.9086 13.2728 85.1998 14.6904C84.6327 15.8245 83.6404 16.8169 82.648 17.5257C82.3645 17.6675 82.081 17.951 81.7974 18.0927C82.081 18.518 82.3645 19.0851 82.5063 19.5104C83.9239 22.0621 85.3415 24.4721 86.9009 27.0238C87.0427 27.3074 87.1844 27.5909 87.3262 27.8744C87.468 28.1579 87.468 28.4415 87.468 28.725H81.5139L76.8357 20.2192L73.7169 20.5027V28.8668H67.9046V0.797626H73.7169V15.541ZM17.2951 7.88579C17.2951 8.16932 17.1534 8.45285 17.0116 8.87814C16.0193 10.5793 15.0269 12.2805 14.0346 13.9816C12.1916 17.1004 10.3487 20.2192 8.64756 23.338C8.64756 23.4798 8.5058 23.6215 8.5058 23.7633C10.0652 23.7633 11.4828 23.7633 12.9005 23.7633C14.3181 23.7633 15.7357 23.7633 17.2951 23.7633V28.8668H0C0 28.5832 0.141763 28.2997 0.283527 28.0162C1.13411 26.4568 1.98469 25.0392 2.83527 23.6215C3.68585 22.2039 4.39466 20.928 5.24524 19.5104C6.37935 17.5257 7.51346 15.541 8.64756 13.6981C8.78933 13.5563 8.78933 13.4146 8.93109 13.131C8.22227 13.131 7.51346 13.131 6.80464 13.131C6.09582 13.131 5.38701 13.131 4.81995 13.131H0.708817V7.88579H17.2951ZM9.21462 5.90111C8.36404 6.04287 7.65522 5.75934 7.08817 5.19229C6.23759 4.48347 5.8123 3.2076 6.23759 2.0735C6.52111 1.08115 7.51346 0.230573 8.64756 0.0888094C9.63991 -0.194717 10.774 0.230573 11.4828 0.939389C12.3334 1.78997 12.4752 2.92408 12.1916 4.05818C11.7664 5.19229 10.774 5.90111 9.63991 5.90111C9.49814 6.04287 9.35638 6.04287 9.21462 5.90111ZM63.7935 14.4069C63.2264 12.4222 62.0923 10.5793 60.3912 9.30343C58.8318 8.16932 57.1306 7.60227 55.2877 7.60227C53.7283 7.4605 52.0271 7.74403 50.4677 8.31108C50.326 8.31108 50.0425 8.45285 49.9007 8.45285V0.797626H44.0884V27.5909C44.939 27.8744 45.7896 28.0162 46.6401 28.1579C48.0578 28.5832 49.4754 28.8668 51.0348 29.1503C53.303 29.4338 55.5712 29.1503 57.8394 28.4415C61.2418 27.4491 63.7935 24.6139 64.2188 21.0698C64.5023 18.9433 64.5023 16.5334 63.7935 14.4069ZM58.2647 21.3533C57.8394 22.7709 56.7053 23.905 55.2877 24.1886C53.5865 24.6139 51.7436 24.4721 50.1842 23.905C50.1842 23.905 50.0425 23.905 50.0425 23.7633V13.4146C52.0271 11.9969 54.7206 11.9969 56.7053 13.2728C57.4141 13.8399 57.8394 14.5487 58.123 15.3992C58.69 17.2422 58.8318 19.3686 58.2647 21.3533ZM38.7014 9.30343C37.2838 8.73637 35.7244 8.31108 34.165 8.02756C32.0385 7.60227 29.9121 7.4605 27.7856 7.60227C25.9427 7.74403 24.0998 8.59461 22.6821 10.0122C21.4063 11.4299 20.4139 13.131 20.1304 14.974C19.8469 16.3916 19.7051 17.8092 19.7051 19.2269C19.7051 21.0698 20.1304 22.7709 20.981 24.3303C21.6898 25.6062 22.6821 26.7403 23.958 27.4491C26.7933 29.0085 30.0538 29.5756 33.1726 29.0085C35.4408 28.725 37.5673 28.0162 39.8355 27.5909V9.87048C39.552 9.72872 39.1267 9.44519 38.7014 9.30343ZM34.165 23.905C32.1803 24.6139 30.0538 24.7556 28.0691 23.905C27.0768 23.4798 26.368 22.7709 25.9427 21.6368C25.2339 19.3686 25.2339 17.1004 26.0845 14.8322C26.6515 13.4146 28.0691 12.4222 29.4868 12.2805C30.9044 12.1387 32.4638 12.2805 33.7397 12.9893C33.8814 12.9893 33.8814 13.131 34.0232 13.131L34.165 23.905ZM107.173 9.0199C105.472 8.45285 103.771 8.02756 101.928 7.74403C100.227 7.4605 98.3837 7.4605 96.5408 7.74403C93.2803 8.31108 90.7285 10.7211 89.7362 13.8399C89.0274 16.2498 88.7438 18.8016 89.1691 21.3533C89.4527 23.6215 90.5868 25.748 92.4297 27.1656C92.855 27.4491 93.422 27.8744 93.8473 28.0162C94.9814 28.5832 96.3991 29.0085 97.6749 29.1503C99.2343 29.4338 100.794 29.4338 102.353 29.1503C104.621 28.725 106.89 28.1579 109.016 27.7327V9.87048C108.449 9.58695 107.882 9.30343 107.173 9.0199ZM103.487 23.905C103.204 24.0468 103.062 24.0468 102.778 24.0468C101.644 24.3303 100.51 24.4721 99.2343 24.4721C97.8167 24.4721 96.5408 23.7633 95.6902 22.6292C95.265 22.0621 94.9814 21.3533 94.8397 20.6445C94.5561 18.9433 94.5561 17.2422 95.1232 15.541C95.5485 13.8399 97.1079 12.564 98.809 12.4222C100.368 12.1387 101.928 12.4222 103.345 13.2728L103.487 23.905Z" fill="#020D06"/>
</svg>
