<svg width="131" height="42" viewBox="0 0 131 42" fill="none" xmlns="http://www.w3.org/2000/svg">
<path d="M6.56838 0.00257543L0 15.2744H4.27635L5.4883 12.2163H12.5339L13.7396 15.2744H18.1101L11.548 0.00257543H6.56838ZM8.99855 3.55678L11.1461 8.90067H6.84468L8.99855 3.55678Z" fill="#020D06"/>
<path d="M18.5623 15.2718V0L24.6392 0.0225748L28.1737 9.86886L31.6237 0H37.652V15.2718H33.834V4.0189L29.7869 15.2718H26.4386L22.3802 4.0189V15.2718H18.5623Z" fill="#020D06"/>
<path d="M40.2643 15.2718V0H52.7228V3.41607H44.1224V6.02833H52.5219V9.24346H44.1224V11.9562H52.7228V15.2718H40.2643Z" fill="#020D06"/>
<path d="M54.9332 0.00257543V15.2744H58.7512V9.84886H60.3587L64.9365 15.2744H69.6022L64.5786 9.64793C66.6403 9.47395 68.767 7.70441 68.767 4.95713C68.767 1.74341 66.2446 0.00257543 63.4294 0.00257543H54.9332ZM58.7512 3.41863H63.1154C64.1624 3.41863 64.9239 4.23757 64.9239 5.02619C64.9239 6.04078 63.9372 6.63375 63.172 6.63375H58.7512V3.41863Z" fill="#020D06"/>
<path d="M74.2239 15.2718H70.3256V0H74.2239V15.2718Z" fill="#020D06"/>
<path d="M83.4674 15.2718H82.6259C78.5546 15.2718 76.0826 12.0642 76.0826 7.69869C76.0826 3.22531 78.5269 0 83.6683 0H87.8881V3.617H83.514C81.4269 3.617 79.9508 5.2458 79.9508 7.73637C79.9508 10.6939 81.6387 11.9361 84.0702 11.9361H85.0749L83.4674 15.2718Z" fill="#020D06"/>
<path d="M91.7752 0.00257543L85.2068 15.2744H89.4831L90.6951 12.2163H97.7407L98.9464 15.2744H103.317L96.7548 0.00257543H91.7752ZM94.2053 3.55678L96.3529 8.90067H92.0515L94.2053 3.55678Z" fill="#020D06"/>
<path d="M103.763 15.2718V0H108.617L114.815 9.59511V0H118.633V15.2718H113.936L107.581 5.42551V15.2718H103.763Z" fill="#020D06"/>
<path d="M27.8057 41.9974V26.7256H40.2643V30.1417H31.6638V32.754H40.0633V35.9691H31.6638V38.6818H40.2643V41.9974H27.8057Z" fill="#020D06"/>
<path d="M88.8527 41.9974V26.7256H101.311V30.1417H92.7108V32.754H101.07V35.9691H92.7108V38.6818H101.311V41.9974H88.8527Z" fill="#020D06"/>
<path d="M40.7478 41.9974L46.8138 34.4557L40.6034 26.7256H45.4135L49.1121 31.5043L52.8233 26.7256H57.445L51.3162 34.3615L57.3934 41.9974H52.5841L48.9928 37.2941L45.4888 41.9974H40.7478Z" fill="#020D06"/>
<path d="M57.8469 26.7282V42H61.7653V37.1773H65.7842C69.1848 37.1773 71.7623 35.3733 71.7623 31.8649C71.7623 28.9585 69.7408 26.7282 66.2803 26.7282H57.8469ZM61.7653 30.1819H65.9977C67.0963 30.1819 67.8816 30.8553 67.8816 31.9402C67.8816 32.9595 67.1003 33.6985 65.9852 33.6985H61.7653V30.1819Z" fill="#020D06"/>
<path d="M73.4201 26.7256V41.9974H77.2381V36.5719H78.8456L83.4234 41.9974H88.0891L83.0655 36.371C85.1272 36.197 87.2539 34.4275 87.2539 31.6802C87.2539 28.4665 84.7315 26.7256 81.9163 26.7256H73.4201ZM77.2381 30.1417H81.6023C82.6493 30.1417 83.4108 30.9606 83.4108 31.7492C83.4108 32.7639 82.4241 33.3568 81.6589 33.3568H77.2381V30.1417Z" fill="#020D06"/>
<path d="M103.08 41.9974V38.6818H110.72C111.851 38.6818 112.341 38.0709 112.341 37.4008C112.341 36.7588 111.853 36.1098 110.72 36.1098H107.268C104.266 36.1098 102.595 34.2812 102.595 31.5358C102.595 29.0871 104.125 26.7256 108.585 26.7256H116.02L114.413 30.1618H107.983C106.753 30.1618 106.375 30.8068 106.375 31.4227C106.375 32.0558 106.843 32.754 107.782 32.754H111.399C114.744 32.754 116.196 34.6518 116.196 37.1371C116.196 39.809 114.578 41.9974 111.217 41.9974H103.08Z" fill="#020D06"/>
<path d="M117.092 41.9974V38.6818H124.733C125.864 38.6818 126.353 38.0709 126.353 37.4008C126.353 36.7588 125.865 36.1098 124.733 36.1098H121.28C118.279 36.1098 116.608 34.2812 116.608 31.5358C116.608 29.0871 118.138 26.7256 122.598 26.7256H130.033L128.426 30.1618H121.995C120.766 30.1618 120.388 30.8068 120.388 31.4227C120.388 32.0558 120.855 32.754 121.794 32.754H125.411C128.757 32.754 130.209 34.6518 130.209 37.1371C130.209 39.809 128.591 41.9974 125.229 41.9974H117.092Z" fill="#020D06"/>
</svg>
