<svg width="116" height="28" viewBox="0 0 116 28" fill="none" xmlns="http://www.w3.org/2000/svg">
<path d="M5.39583 0.0513333H5.61517C6.958 0.0513333 8.533 0.634667 9.66933 1.94017C10.15 2.42083 11.0892 4.67017 11.1743 4.87433L11.179 4.88833L16.9622 20.3047C17.2982 21.1715 17.9958 21.6755 18.7052 21.728C19.0784 21.7353 19.4453 21.6316 19.7596 21.4302C20.0738 21.2287 20.3212 20.9385 20.4703 20.5963L20.538 20.4213L22.358 15.5715L25.431 23.6285C23.9202 26.3445 22.4747 27.0433 20.7842 27.664C20.2573 27.821 19.716 27.9246 19.1683 27.9732L18.7565 28H18.1895C16.9365 27.9615 15.6975 27.6255 14.7035 27.0433C14.1587 26.6712 12.7493 25.7413 11.7472 23.5013L11.6188 23.2015L5.52533 6.22067V21.6883L5.61517 21.4305L7.84933 15.1445L10.7403 23.3182C10.3017 25.207 8.9845 26.7843 7.4095 27.5345C6.90083 27.7678 6.496 27.9055 6.00133 27.9638L5.74467 27.9872H5.58833C4.3433 28.0546 3.10916 27.7236 2.065 27.0422C0.5705 25.9548 0.0921667 24.6412 0.00816667 22.4338L0 22.1293V5.341C0.180833 2.57367 1.93667 1.05933 3.51167 0.3745C4.17667 0.144667 4.50567 0.0688333 5.1415 0.0536667L5.39583 0.0513333ZM104.231 0C109.443 0 113.713 2.75333 115.303 7.126L115.41 7.434L115.577 7.90767L115.128 8.16433C114.961 8.267 114 8.715 112.167 9.57367C111.682 9.81633 111.28 9.996 111.15 10.0578L111.115 10.0742L110.423 10.4207L110.231 9.67633C109.628 7.53667 107.757 5.21617 104.295 5.21617C99.974 5.21617 97.4995 8.35683 97.4995 13.8297C97.4995 18.1113 99.2565 22.673 104.167 22.673C106.84 22.673 109.024 21.2147 110.06 18.7612L110.167 18.4952L110.41 17.8663L115.654 20.2253L115.397 20.8017C113.436 25.2747 109.128 27.9918 104.09 27.9918C103.923 27.9918 103.756 27.9918 103.59 27.9802C96.1287 27.762 91.5005 22.4035 91.5005 14.0222C91.5005 3.9095 97.8845 0.154 103.846 0.0128333C103.975 0 104.103 0 104.231 0ZM35.2928 0.918167C36.813 2.05683 37.268 3.31217 37.3275 5.58133L37.3333 5.89633V22.6333C37.1525 25.452 35.3325 26.9652 33.7575 27.664C33.0738 27.9218 32.7507 27.9872 31.9375 27.9872C30.5562 27.9872 28.8003 27.4692 27.664 26.0342C27.1962 25.5523 26.257 23.2925 26.173 23.0872L26.1672 23.072L20.384 7.73383C20.227 7.35126 19.9707 7.01759 19.6414 6.76735C19.3122 6.5171 18.9221 6.35938 18.5115 6.3105C17.8523 6.29883 17.1932 6.65467 16.8338 7.4305L16.7557 7.61717L15.001 12.467L11.928 4.34583C13.426 1.62983 14.8715 1.00917 16.562 0.3745C17.0462 0.2135 17.682 0.114333 18.2548 0.0641667L18.5897 0.0385V0.0268333H18.718L18.7833 0.0198333L18.8475 0.0128333V0.0256667C20.216 0.0128333 21.5845 0.323167 22.6683 1.00917C23.2132 1.3685 24.6108 2.2505 25.613 4.48583L25.7413 4.78567L31.7695 21.819V6.28367L31.6272 6.69783L29.5108 12.8287L26.6315 4.64217C27.006 2.81867 28.3873 1.24017 29.9495 0.49C30.331 0.303333 30.7965 0.175 31.2317 0.0991667L31.5502 0.0501667V0.0385H31.6668C31.6785 0.0245 31.6925 0.0245 31.6925 0.0245C32.9572 -0.0793333 34.2358 0.2695 35.294 0.917L35.2928 0.918167ZM58.3473 0L68.2197 27.7235H61.8088L59.6283 21.3267H50.2437L48.0643 27.7223H41.692L51.5503 0H58.3473ZM80.0135 0C84.1937 0 89.1683 1.24367 89.1683 7.1645C89.1683 9.67633 88.116 11.8428 86.3987 13.0352C88.6165 14.2018 89.8987 16.5083 89.873 19.4565C89.873 24.598 86.457 27.6057 80.472 27.72L80.1162 27.7235H68.8333V0H80.0135ZM79.7965 15.995H74.9233V22.4163H80.1792C82.5767 22.4163 83.769 21.378 83.8332 19.2383C83.8588 18.3027 83.6022 17.5467 83.09 17.0217C82.4227 16.3543 81.2957 15.995 79.7965 15.995ZM54.95 8.13867L52.0392 16.0335H57.7955L54.95 8.13867ZM79.9493 5.20333H74.9233V10.6633H79.7697C81.9863 10.6633 83.1028 9.68917 83.1028 7.742C83.1028 6.5625 82.7447 5.20333 79.9493 5.20333Z" fill="#020D06"/>
</svg>
