<svg width="225" height="20" viewBox="0 0 225 20" fill="none" xmlns="http://www.w3.org/2000/svg">
<path d="M18.7174 11.2656L11.1419 10.3944C10.6737 10.3404 10.6737 9.65961 11.1419 9.60646L18.7174 8.73523C18.9006 8.7138 19.0451 8.5694 19.0665 8.3861L19.9796 0.441959C20.0066 0.2063 19.8225 0 19.5853 0H9.99934C4.47642 0 0 4.47672 0 10C0 15.5225 4.47642 20 9.99934 20H19.5861C19.8233 20 20.0074 19.7937 19.9804 19.5581L19.0665 11.6147C19.0451 11.4314 18.9006 11.287 18.7174 11.2656Z" fill="#020D06"/>
<path d="M30.9603 0H21.3735C21.1363 0 20.9522 0.2063 20.9792 0.441959L21.8933 8.38532C21.9146 8.5686 22.059 8.71302 22.2423 8.73444L29.8178 9.60566C30.2859 9.65961 30.2859 10.3404 29.8178 10.3936L22.2423 11.2648C22.059 11.2862 21.9146 11.4306 21.8933 11.6139L20.9792 19.5573C20.9522 19.7929 21.1363 19.9992 21.3735 19.9992H30.9603C36.4825 19.9992 40.9596 15.5225 40.9596 9.99922C40.9588 4.47672 36.4825 0 30.9603 0Z" fill="#020D06"/>
<path d="M66.7232 7.23336H63.2022C63.1602 5.59856 61.3997 4.5087 59.1989 4.5087C56.9773 4.5087 54.1897 5.87103 54.1897 9.99993C54.1897 13.9612 56.8097 15.4911 59.1989 15.4911C61.5254 15.4911 63.1183 14.4014 63.3907 12.7246H66.9119C66.7023 16.2248 63.6632 17.9643 58.9684 17.9643C53.6867 17.9643 50.6687 15.0929 50.6687 9.99993C50.6687 4.94883 53.8754 2.03554 59.157 2.03554C63.1811 2.03554 66.6184 3.6913 66.7232 7.23336Z" fill="#020D06"/>
<path d="M68.6026 2.43376H77.6778C81.4504 2.43376 83.5045 3.7961 83.5045 6.4998C83.5045 8.82624 82.0792 10.1886 79.3336 10.3982V10.4401C82.3726 10.5658 82.9385 11.8025 83.1481 13.8773C83.2738 15.072 83.232 16.4134 83.693 17.5661H80.0462C79.8785 17.1469 79.7737 16.3714 79.7109 15.1768C79.5641 12.3683 79.0402 11.5928 75.6867 11.5928H71.9979V17.5661H68.6026V2.43376ZM71.9979 9.24542H76.4622C78.8515 9.24542 79.9833 8.53281 79.9833 6.98185C79.9833 5.5776 79.0611 4.90692 76.6718 4.90692H71.9979V9.24542Z" fill="#020D06"/>
<path d="M85.5096 2.43376H97.498V4.90692H88.9049V8.46993H97.1837V10.9431H88.9049V15.0929H97.8753V17.5661H85.5096V2.43376Z" fill="#020D06"/>
<path d="M105.718 2.43376H109.994L117.728 17.5661H113.704L111.964 14.1707H103.245L101.652 17.5661H98.0055L105.718 2.43376ZM107.605 5.11651L104.461 11.6976H110.749L107.605 5.11651Z" fill="#020D06"/>
<path d="M115.227 2.43376H130.15V4.90692H124.386V17.5661H120.991V4.90692H115.227V2.43376Z" fill="#020D06"/>
<path d="M147.661 9.99993C147.661 15.1768 144.56 17.9643 138.838 17.9643C133.116 17.9643 130.013 15.1768 130.013 9.99993C130.013 4.82309 133.137 2.03554 138.838 2.03554C144.538 2.03554 147.661 4.82309 147.661 9.99993ZM138.838 15.4911C142.17 15.4911 144.14 13.5211 144.14 9.99993C144.14 6.4998 142.211 4.5087 138.796 4.5087C135.546 4.5087 133.535 6.47883 133.535 9.99993C133.535 13.5211 135.546 15.4911 138.838 15.4911Z" fill="#020D06"/>
<path d="M149.524 2.43376H158.599C162.372 2.43376 164.425 3.7961 164.425 6.4998C164.425 8.82624 163.001 10.1886 160.254 10.3982V10.4401C163.293 10.5658 163.86 11.8025 164.069 13.8773C164.195 15.072 164.153 16.4134 164.614 17.5661H160.968C160.799 17.1469 160.695 16.3714 160.632 15.1768C160.485 12.3683 159.961 11.5928 156.608 11.5928H152.919V17.5661H149.524V2.43376ZM152.919 9.24542H157.384C159.773 9.24542 160.904 8.53281 160.904 6.98185C160.904 5.5776 159.982 4.90692 157.593 4.90692H152.919V9.24542Z" fill="#020D06"/>
<path d="M172.721 2.43376H179.951C185.17 2.43376 188.272 5.2213 188.272 10.1466C188.272 13.6677 186.051 17.5661 179.993 17.5661H172.721V2.43376ZM176.116 15.0929H179.491C183.284 15.0929 184.752 12.515 184.752 9.87419C184.752 6.68842 182.718 4.90692 179.448 4.90692H176.116V15.0929Z" fill="#020D06"/>
<path d="M195.243 2.43376H199.518L207.252 17.5661H203.228L201.488 14.1707H192.769L191.177 17.5661H187.53L195.243 2.43376ZM197.128 5.11651L193.985 11.6976H200.273L197.128 5.11651Z" fill="#020D06"/>
<path d="M224.406 9.99993C224.406 15.1768 221.305 17.9643 215.583 17.9643C209.861 17.9643 206.76 15.1768 206.76 9.99993C206.76 4.82309 209.883 2.03554 215.583 2.03554C221.284 2.03554 224.406 4.82309 224.406 9.99993ZM215.583 15.4911C218.915 15.4911 220.886 13.5211 220.886 9.99993C220.886 6.4998 218.958 4.5087 215.541 4.5087C212.293 4.5087 210.281 6.47883 210.281 9.99993C210.281 13.5211 212.293 15.4911 215.583 15.4911Z" fill="#020D06"/>
</svg>
