<svg width="153" height="34" viewBox="0 0 153 34" fill="none" xmlns="http://www.w3.org/2000/svg">
<path d="M58.8245 22.1072L53.3711 2.41241H58.1289L60.04 11.3402C60.5277 13.5392 60.8835 15.4143 61.1154 16.9656H61.2553C61.4153 15.8541 61.7752 13.991 62.3309 11.3722L64.3099 2.41241H69.0677L63.5462 22.1072V31.5547H58.8206V22.1072H58.8245Z" fill="#020D06"/>
<path d="M70.498 30.9299C69.5385 30.2822 68.8547 29.2746 68.4469 27.9073C68.0432 26.54 67.8393 24.7249 67.8393 22.4539V19.3633C67.8393 17.0724 68.0712 15.2293 68.535 13.842C68.9987 12.4546 69.7224 11.4391 70.7059 10.8034C71.6895 10.1677 72.9808 9.84784 74.5802 9.84784C76.1554 9.84784 77.4147 10.1717 78.3662 10.8194C79.3138 11.4671 80.0095 12.4826 80.4493 13.858C80.889 15.2373 81.109 17.0724 81.109 19.3633V22.4539C81.109 24.7249 80.8931 26.548 80.4654 27.9233C80.0375 29.3027 79.3419 30.3103 78.3822 30.9459C77.4227 31.5817 76.1193 31.9015 74.4761 31.9015C72.7809 31.9054 71.4576 31.5776 70.498 30.9299ZM75.8795 27.5955C76.1433 26.8999 76.2793 25.7684 76.2793 24.1932V17.5603C76.2793 16.0329 76.1474 14.9134 75.8795 14.2098C75.6116 13.5021 75.1439 13.1503 74.4721 13.1503C73.8245 13.1503 73.3647 13.5021 73.1008 14.2098C72.8329 14.9175 72.701 16.0329 72.701 17.5603V24.1932C72.701 25.7684 72.8288 26.9038 73.0849 27.5955C73.3407 28.2912 73.8004 28.639 74.4721 28.639C75.1439 28.639 75.6116 28.2912 75.8795 27.5955Z" fill="#020D06"/>
<path d="M96.5851 31.5588H92.8349L92.4191 28.952H92.3152C91.2956 30.9191 89.7683 31.9026 87.7293 31.9026C86.318 31.9026 85.2745 31.4388 84.6028 30.5153C83.9312 29.5877 83.5953 28.1405 83.5953 26.1734V10.2648H88.3891V25.8934C88.3891 26.845 88.493 27.5206 88.7009 27.9245C88.9088 28.3283 89.2566 28.5321 89.7443 28.5321C90.1601 28.5321 90.56 28.4043 90.9438 28.1484C91.3277 27.8924 91.6075 27.5686 91.7954 27.1769V10.2608H96.5851V31.5588Z" fill="#020D06"/>
<path d="M109.611 6.26972H104.853V31.5578H100.163V6.26972H95.4052V2.41553H109.611V6.26972Z" fill="#020D06"/>
<path d="M121.17 31.5588H117.42L117.004 28.952H116.9C115.881 30.9191 114.353 31.9026 112.314 31.9026C110.903 31.9026 109.859 31.4388 109.188 30.5153C108.516 29.5877 108.18 28.1405 108.18 26.1734V10.2648H112.974V25.8934C112.974 26.845 113.078 27.5206 113.286 27.9245C113.494 28.3283 113.841 28.5321 114.329 28.5321C114.745 28.5321 115.145 28.4043 115.529 28.1484C115.913 27.8924 116.192 27.5686 116.38 27.1769V10.2608H121.17V31.5588Z" fill="#020D06"/>
<path d="M137.035 13.6666C136.744 12.3233 136.276 11.3517 135.628 10.748C134.98 10.1443 134.089 9.84443 132.953 9.84443C132.074 9.84443 131.25 10.0923 130.487 10.5921C129.723 11.0918 129.131 11.7435 128.715 12.5551H128.679V1.33643H124.062V31.5542H128.02L128.507 29.5392H128.611C128.983 30.2588 129.539 30.8225 130.279 31.2424C131.018 31.6582 131.842 31.8661 132.746 31.8661C134.365 31.8661 135.56 31.1185 136.324 29.6271C137.087 28.1318 137.471 25.8009 137.471 22.6265V19.2561C137.471 16.8771 137.323 15.01 137.035 13.6666ZM132.641 22.3545C132.641 23.9057 132.578 25.1212 132.45 26.0008C132.322 26.8804 132.11 27.5082 131.806 27.8759C131.506 28.2477 131.098 28.4316 130.59 28.4316C130.195 28.4316 129.831 28.3397 129.495 28.1518C129.159 27.9679 128.887 27.6881 128.679 27.3202V15.2339C128.839 14.6542 129.119 14.1824 129.515 13.8106C129.907 13.4387 130.339 13.2548 130.798 13.2548C131.286 13.2548 131.662 13.4467 131.926 13.8266C132.194 14.2104 132.378 14.8501 132.482 15.7536C132.586 16.6572 132.638 17.9406 132.638 19.6078V22.3545H132.641Z" fill="#020D06"/>
<path d="M144.27 23.5817C144.27 24.949 144.31 25.9725 144.39 26.6563C144.47 27.3399 144.638 27.8357 144.893 28.1516C145.149 28.4634 145.541 28.6193 146.073 28.6193C146.789 28.6193 147.284 28.3395 147.548 27.7837C147.816 27.228 147.96 26.3005 147.984 25.0051L152.118 25.2489C152.142 25.4328 152.154 25.6886 152.154 26.0125C152.154 27.9796 151.614 29.4509 150.539 30.4225C149.463 31.394 147.94 31.8817 145.973 31.8817C143.61 31.8817 141.955 31.1421 141.007 29.6588C140.056 28.1756 139.584 25.8847 139.584 22.782V19.0637C139.584 15.8693 140.076 13.5344 141.059 12.0631C142.043 10.5918 143.726 9.85614 146.113 9.85614C147.756 9.85614 149.02 10.156 149.899 10.7597C150.779 11.3634 151.398 12.299 151.758 13.5744C152.118 14.8498 152.298 16.609 152.298 18.8558V22.5022H144.27V23.5817ZM144.877 13.5464C144.634 13.8463 144.474 14.338 144.39 15.0217C144.31 15.7054 144.27 16.7409 144.27 18.1323V19.6596H147.776V18.1323C147.776 16.7649 147.728 15.7294 147.636 15.0217C147.544 14.314 147.376 13.8183 147.132 13.5264C146.889 13.2386 146.513 13.0906 146.005 13.0906C145.493 13.0946 145.117 13.2466 144.877 13.5464Z" fill="#020D06"/>
<path fill-rule="evenodd" clip-rule="evenodd" d="M43.2596 1.01552C45.3506 1.57526 46.994 3.21849 47.5536 5.30951C48.5651 9.09571 48.5692 17 48.5692 17C48.5692 17 48.5692 24.9043 47.5536 28.6906C46.994 30.7816 45.3506 32.4248 43.2596 32.9844C39.4735 34 24.2845 34 24.2845 34C24.2845 34 9.09571 34 5.30949 32.9844C3.21849 32.4248 1.57526 30.7816 1.01552 28.6906C0 24.9043 0 17 0 17C0 17 0 9.09571 1.01552 5.30951C1.57526 3.21849 3.21849 1.57526 5.30949 1.01552C9.09571 0 24.2845 0 24.2845 0C24.2845 0 39.4735 0 43.2596 1.01552ZM32.0409 17.0007L19.4228 24.2852V9.71606L32.0409 17.0007Z" fill="#020D06"/>
</svg>
