<svg width="148" height="52" viewBox="0 0 148 52" fill="none" xmlns="http://www.w3.org/2000/svg">
<path d="M81.5753 3.37915C82.1839 4.60699 81.8264 6.21582 81.1912 7.31818L76.2769 18.3746L76.2344 18.4264L74.458 7.21006C74.3155 6.133 75.4663 5.67346 76.1437 5.15596C76.1092 4.99768 75.9351 5.00548 75.8255 4.93178L74.165 4.91443L74.1146 4.86427C74.124 3.47182 74.8736 2.18602 76.1437 1.51025C77.4705 0.743562 79.3394 0.952003 80.4903 1.93522C80.9576 2.3521 81.3513 2.8365 81.5753 3.37915Z" fill="#020D06"/>
<path d="M72.5213 2.99492C72.9229 3.73822 73.155 4.58198 73.0138 5.51636L71.0099 18.3589C71.0208 18.3745 71.0021 18.3918 70.9862 18.3995L70.4672 17.3663L65.4447 6.14992C64.9773 4.70569 65.4102 3.19571 66.4623 2.16057C67.5223 1.08498 69.266 0.793282 70.6523 1.37668C71.3862 1.69353 72.0871 2.27693 72.5213 2.99492Z" fill="#020D06"/>
<path d="M88.845 8.40157C89.5208 9.55395 89.3688 11.2978 88.6174 12.3672C88.152 13.1183 87.3834 13.4931 86.7326 13.9855L76.3256 21.1294H76.3018L76.418 20.7877L81.9345 8.33582C82.7609 6.86806 84.3384 6.12476 86.0068 6.34894C87.1499 6.55768 88.2931 7.30082 88.845 8.40157Z" fill="#020D06"/>
<path d="M65.2033 8.33582L70.944 21.128H70.8516L59.2778 13.1513C58.1 12.1588 57.6172 10.6722 58.017 9.17002C58.3165 8.04412 59.251 6.99206 60.3628 6.57474C62.1832 5.90838 64.234 6.61711 65.2033 8.33582Z" fill="#020D06"/>
<path d="M91.8651 17.432C92.442 18.6504 92.2147 20.3188 91.3899 21.3552C90.5716 22.3479 89.4769 22.8904 88.1926 22.8559L75.852 22.8638L86.19 15.6712C87.2001 15.0205 88.7352 14.9026 89.8376 15.4296C90.6889 15.7636 91.4903 16.5978 91.8651 17.432Z" fill="#020D06"/>
<path d="M55.3212 17.432C54.7459 18.6504 54.9716 20.3188 55.798 21.3552C56.6165 22.3479 57.7078 22.8904 58.9937 22.8559L71.3344 22.8638L60.9962 15.6712C59.9864 15.0205 58.4514 14.9026 57.3505 15.4296C56.4988 15.7636 55.6977 16.5978 55.3212 17.432Z" fill="#020D06"/>
<path d="M33.1614 30.251C27.1652 30.251 22.2918 35.1277 22.2918 41.124C22.2918 47.1188 27.1652 51.9984 33.1614 51.9984C39.1578 51.9984 44.0344 47.1188 44.0344 41.124C44.0344 35.1278 39.1578 30.251 33.1614 30.251ZM33.1614 49.8565C28.346 49.8565 24.4274 45.9382 24.4274 41.1242C24.4274 36.3115 28.346 32.3931 33.1614 32.3931C37.977 32.3931 41.8956 36.3117 41.8956 41.1242C41.8956 45.9382 37.977 49.8565 33.1614 49.8565Z" fill="#020D06"/>
<path d="M126.906 41.262C126.323 40.956 122.775 39.1294 122.265 38.8644C120.404 37.9126 119.744 37.072 119.744 35.6483C119.744 33.6695 121.368 32.3915 123.888 32.3915C125.367 32.3915 126.797 33.0422 127.636 33.5141C127.788 33.5972 127.968 33.6443 128.156 33.6443C128.743 33.6443 129.224 33.163 129.224 32.5765C129.224 32.1814 129.007 31.8347 128.689 31.6496C127.633 31.0599 125.831 30.2525 123.888 30.2525C120.186 30.2525 117.603 32.4696 117.603 35.6483C117.603 38.5007 119.478 39.846 121.313 40.7838C121.827 41.0456 125.417 42.8959 125.955 43.1796C127.372 43.9213 128.156 45.0347 128.156 46.3159C128.156 48.0329 126.701 49.8581 124.009 49.8581C121.39 49.8581 119.356 48.1019 118.795 47.5608L118.627 47.4008L117.045 48.8434L117.23 49.0284C117.932 49.725 120.501 51.9984 124.009 51.9984C127.942 51.9984 130.292 49.1085 130.292 46.3159C130.292 44.2305 129.06 42.3876 126.906 41.262Z" fill="#020D06"/>
<path d="M10.8699 32.3929C13.2047 32.3929 15.3984 33.3026 17.0449 34.9473C17.4369 35.3377 18.1739 35.3377 18.5596 34.9473C18.7634 34.7481 18.8716 34.4801 18.8716 34.1931C18.8716 33.9092 18.7634 33.638 18.5596 33.4388L18.4279 33.3039C16.3925 31.3344 13.7065 30.251 10.8699 30.251C4.87665 30.251 0 35.1293 0 41.1224C0 47.1189 4.87665 51.9985 10.8699 51.9985C14.034 51.9985 16.8848 50.6409 18.8716 48.4767L17.3584 46.962C15.7589 48.737 13.4445 49.8566 10.8698 49.8566C6.0558 49.8566 2.13721 45.9367 2.13721 41.1226C2.13736 36.3131 6.05595 32.3929 10.8699 32.3929Z" fill="#020D06"/>
<path d="M84.5736 32.3929C86.9055 32.3929 89.1021 33.3026 90.7485 34.9473C91.1389 35.3377 91.8761 35.3377 92.2618 34.9473C92.4657 34.7481 92.5785 34.4801 92.5785 34.1931C92.5785 33.9092 92.4655 33.638 92.2618 33.4388L92.1316 33.3039C90.0916 31.3344 87.4087 30.251 84.5736 30.251C78.579 30.251 73.7006 35.1291 73.7006 41.1223C73.7006 47.1188 78.579 51.9984 84.5736 51.9984C87.7363 51.9984 90.5871 50.6408 92.5769 48.4765L91.0621 46.9618C89.4626 48.7369 87.1449 49.8565 84.5736 49.8565C79.758 49.8565 75.8378 45.9365 75.8378 41.1224C75.8378 36.3131 79.758 32.3929 84.5736 32.3929Z" fill="#020D06"/>
<path d="M66.1568 30.251C65.7553 30.251 65.4385 30.5098 65.2659 30.8437C65.0903 31.1776 58.8683 46.5682 58.8668 46.5682C58.8668 46.5682 52.6448 31.1775 52.4706 30.8437C52.2966 30.5096 51.98 30.251 51.5786 30.251C51.1096 30.251 50.7569 30.596 50.633 31.0305C50.5092 31.4678 46.9984 50.8379 46.9984 50.8379C46.9857 50.9009 46.9795 50.9668 46.9795 51.034C46.9795 51.5669 47.4139 51.9984 47.9439 51.9984C48.4143 51.9984 48.8064 51.663 48.8909 51.2192L51.9313 34.6464C51.9313 34.6464 57.7975 49.1383 57.9685 49.4831C58.141 49.8266 58.4608 50.0948 58.8686 50.0948C59.2762 50.0948 59.5946 49.8266 59.7654 49.4831C59.938 49.1382 65.804 34.6464 65.804 34.6464L68.9636 51.8792H70.9271C70.9271 51.8792 67.2279 31.4677 67.1041 31.0305C66.9783 30.596 66.6254 30.251 66.1568 30.251Z" fill="#020D06"/>
<path d="M104.812 30.2525C104.406 30.251 104.091 30.5159 103.914 30.8609C103.738 31.2044 95.8622 50.6579 95.8622 50.6579C95.8151 50.7722 95.7884 50.8994 95.7884 51.0341C95.7884 51.5671 96.2197 52 96.7528 52C97.1589 52 97.5071 51.746 97.6499 51.3869L100.707 43.8651H108.919L112.181 51.8792H114.265C114.265 51.8792 105.882 31.2042 105.71 30.8607C105.538 30.5159 105.22 30.251 104.812 30.2525ZM101.579 41.7244L104.812 33.7742L108.049 41.7244H101.579Z" fill="#020D06"/>
<path d="M146.065 30.3669H133.96C133.37 30.3669 132.892 30.8469 132.892 31.438C132.892 32.0259 133.37 32.5058 133.96 32.5058H139.034V51.8776H140.994V32.5059H146.065C146.655 32.5059 147.138 32.0261 147.138 31.4381C147.138 30.8469 146.655 30.3669 146.065 30.3669Z" fill="#020D06"/>
</svg>
