<svg width="211" height="20" viewBox="0 0 211 20" fill="none" xmlns="http://www.w3.org/2000/svg">
<path d="M12.909 0.422309V3.99482H3.82361V8.09806H12.2099V11.5222H3.82361V16.0135H13.0117V19.5746H0V0.422309H12.909ZM45.6294 19.5746H49.6927L43.7318 0.422309H38.1648L32.2039 19.5746H36.1987L37.4114 15.537H44.4281L45.6294 19.5746ZM38.4358 12.0815L40.9069 3.86641L43.3723 12.0815H38.4358ZM50.4545 12.4524V7.51881C50.4545 3.21868 53.4877 0 58.1845 0C62.9326 0 65.7547 3.1131 65.7547 7.38756H61.9025C61.8483 4.98781 60.53 3.53541 58.1931 3.53541C55.7933 3.53541 54.3409 5.14475 54.3409 7.72997V12.2698C54.3409 14.8807 55.7905 16.49 58.1931 16.4644C60.5414 16.49 61.8597 15.0376 61.9025 12.6122H65.7547C65.7547 16.938 62.9326 20.0312 58.1845 19.9998C53.4906 20.0226 50.4545 16.8039 50.4545 12.4524ZM81.5913 0.422309V3.99482H76.3409V19.5746H72.4774V3.99482H67.227V0.422309H81.5913ZM101.503 6.06927V6.43736H97.6248V6.20053C97.6248 4.59119 96.4835 3.53541 94.3263 3.53541C92.5314 3.53541 91.4728 4.43139 91.5042 5.59274C91.5299 7.12219 93.3761 7.51882 95.382 8.02102L96.0155 8.17796C99.7877 9.12816 101.951 10.7889 101.976 13.9276C102.002 17.6999 99.0744 19.9684 94.8427 19.9684C90.1574 19.9684 87.0443 17.4345 87.0443 12.9518V12.9261H90.9221V13.1116C90.9221 15.2745 92.4658 16.4501 94.8541 16.4501C96.7545 16.4501 98.0728 15.6854 98.0728 14.2872C98.0728 12.8376 96.9314 12.3868 94.3006 11.7191L93.6671 11.5621C89.7351 10.5806 87.615 9.07679 87.615 5.91233C87.5893 2.53671 90.4684 0.0285331 94.4204 0.0285331C98.7605 0.0285331 101.503 2.55954 101.503 6.06927ZM103.962 12.4553V7.51881C103.962 3.21868 106.996 0 111.692 0C116.44 0 119.262 3.1131 119.262 7.38756H115.41C115.359 4.98781 114.038 3.53541 111.701 3.53541C109.301 3.53541 107.849 5.14475 107.849 7.72997V12.2669C107.849 14.8778 109.298 16.4872 111.701 16.4615C114.049 16.4872 115.368 15.0348 115.41 12.6094H119.262C119.262 16.9352 116.44 20.0283 111.692 19.9969C106.996 20.0254 103.962 16.8068 103.962 12.4553ZM125.785 19.5889H121.933V0.422309H125.785V19.5889ZM142.138 0.436575V3.9834H133.053V8.09806H141.439V11.5222H133.053V16.0078H142.241V19.5889H129.227V0.422309L142.138 0.436575ZM156.215 0.436575V12.5979L148.696 0.422309H145.003V19.5889H148.801V7.39612L156.32 19.5889H160.012V0.422309L156.215 0.436575ZM162.834 12.4553V7.51881C162.834 3.21868 165.868 0 170.564 0C175.313 0 178.135 3.1131 178.135 7.38756H174.282C174.231 4.98781 172.91 3.53541 170.573 3.53541C168.173 3.53541 166.721 5.14475 166.721 7.72997V12.2669C166.721 14.8778 168.17 16.4872 170.573 16.4615C172.921 16.4872 174.24 15.0348 174.282 12.6094H178.135C178.135 16.9352 175.313 20.0283 170.564 19.9969C165.868 20.0254 162.834 16.8068 162.834 12.4553ZM193.714 0.422309V3.9834H184.632V8.09806H193.018V11.5222H184.632V16.0078H193.82V19.5889H180.805V0.422309H193.714ZM209.842 6.06927V6.43736H205.964V6.20053C205.964 4.59119 204.823 3.53541 202.666 3.53541C200.871 3.53541 199.812 4.43139 199.844 5.59274C199.869 7.12219 201.715 7.51882 203.721 8.02102L204.355 8.17796C208.127 9.12816 210.29 10.7889 210.316 13.9276C210.341 17.6999 207.414 19.9684 203.182 19.9684C198.485 19.9684 195.375 17.4345 195.375 12.9518V12.9261H199.253V13.1116C199.253 15.2745 200.808 16.4358 203.182 16.4358C205.083 16.4358 206.401 15.6711 206.401 14.2729C206.401 12.8234 205.259 12.3725 202.629 11.7048L201.995 11.5479C198.063 10.572 195.954 9.06823 195.929 5.90377C195.903 2.52815 198.782 0.0199734 202.734 0.0199734C207.097 0.0285337 209.842 2.55954 209.842 6.06927ZM20.4563 9.73594L20.2737 9.89288C17.5743 7.63295 15.3658 4.51129 15.3658 0.425163H19.3749C19.3749 3.25863 20.4791 5.37303 23.1328 7.55876L23.013 7.65863L20.4563 9.73594ZM25.9948 9.89002C25.9435 9.93283 25.8921 9.98133 25.8379 10.0241L23.2698 12.1071C23.2184 12.1471 23.1728 12.1899 23.1243 12.2298C25.7694 14.4099 26.9165 16.7497 26.8908 19.5746H30.8999C30.9284 15.5256 28.6828 12.1585 25.9948 9.89002Z" fill="#020D06"/>
<path d="M26.8937 0.422309C26.8937 3.25578 25.7894 5.37017 23.1357 7.55591L23.0159 7.65578L20.4478 9.73879L20.2651 9.89573C17.5772 12.1785 15.3572 15.5284 15.3572 19.5775H19.3749C19.3492 16.7554 20.4963 14.4156 23.1328 12.2327C23.1813 12.1928 23.227 12.1499 23.2784 12.11L25.8465 10.027C25.9007 9.98419 25.952 9.93853 26.0034 9.89288C28.7028 7.63295 30.9113 4.51129 30.9113 0.425163H26.9165L26.8937 0.422309Z" fill="#020D06"/>
</svg>
