<svg width="99" height="40" viewBox="0 0 99 40" fill="none" xmlns="http://www.w3.org/2000/svg">
<path d="M98.8293 0H0V40H98.8293V0Z" fill="#020D06"/>
<path d="M9.66 3.86H20.41L27 26.19H27.1L31.62 3.86H39.74L32.91 36.06H22.21L15.47 13.78H15.38L10.91 36.06H2.79L9.66 3.86Z" fill="#FCFCFC"/>
<path d="M42.91 3.86H51.54L49 16.18H59.2L61.74 3.86H70.37L63.68 36.06H55L57.86 22.27H47.71L44.85 36.06H36.23L42.91 3.86Z" fill="#FCFCFC"/>
<path d="M93.06 11.15C90.848 10.1317 88.4347 9.62578 86 9.67C82.59 9.67 79.82 10.18 79.82 12.76C79.82 17.33 92.32 15.62 92.32 25.4C92.32 34.3 84.06 36.61 76.59 36.61C73.1951 36.5311 69.8284 35.9722 66.59 34.95L68.59 28.4C70.3 29.51 73.71 30.25 76.52 30.25C79.33 30.25 83.39 29.74 83.39 26.42C83.39 21.25 70.89 23.19 70.89 14.1C70.89 5.8 78.18 3.3 85.24 3.3C89.24 3.3 92.94 3.72 95.11 4.73L93.06 11.15Z" fill="#FCFCFC"/>
</svg>
