<svg width="126" height="34" viewBox="0 0 126 34" fill="none" xmlns="http://www.w3.org/2000/svg">
<path d="M17.3222 31.8085C15.4271 32.1408 13.4987 32.2404 11.5039 32.5058L5.41934 14.7091V33.2696C3.52427 33.4688 1.79541 33.7344 0 34V0H5.05383L11.9693 19.2913V0H17.3222V31.8085ZM27.7953 12.4512C29.8569 12.4512 33.0154 12.3515 34.9104 12.3515V17.6639C32.5497 17.6639 29.7903 17.6639 27.7953 17.7636V25.666C30.9208 25.4669 34.0461 25.201 37.2045 25.1014V30.2144L22.4755 31.3767V0H37.2045V5.31251H27.7953V12.4512V12.4512ZM56.987 5.31263H51.4679V29.7501C49.6725 29.7501 47.8771 29.7501 46.1485 29.8163V5.31263H40.6293V0H56.9873L56.987 5.31263V5.31263ZM65.6314 12.086H72.9129V17.3984H65.6314V29.4513H60.4111V0H75.2734V5.31251H65.6314V12.086V12.086ZM83.9179 24.8027C86.9435 24.8689 90.0021 25.1018 92.9614 25.2675V30.5137C88.207 30.2146 83.4525 29.9162 78.5983 29.8163V0H83.9179V24.8027ZM97.4498 30.8789C99.1454 30.9787 100.941 31.0783 102.67 31.2772V0H97.4498V30.8789V30.8789ZM125.977 0L119.227 16.17L125.977 34C123.982 33.7344 121.987 33.3691 119.992 33.037L116.169 23.2091L112.279 32.2404C110.35 31.9081 108.488 31.8085 106.56 31.5428L113.409 15.9706L107.225 0H112.943L116.434 8.93166L120.158 0H125.977V0Z" fill="#020D06"/>
</svg>
