<svg width="116" height="42" viewBox="0 0 116 42" fill="none" xmlns="http://www.w3.org/2000/svg">
<path d="M34.8883 33.6541L27.3543 20.9806L34.8883 8.3071L38.5202 20.9806L34.8883 33.6541ZM18.1204 32.4174L8.65431 23.0283H23.7223L31.2563 35.7018L18.1204 32.4174ZM18.1204 9.50503L31.218 6.22063L23.684 18.8941H8.61596L18.1204 9.50503ZM37.3611 0L20.2451 4.44355L17.6951 8.80954L12.5568 8.77076L0 20.9806L12.5568 33.1905L17.6951 33.1517L20.2451 37.5177L37.3611 42L41.9586 25.3466L39.3699 21.0194L41.9586 16.6918L37.3611 0ZM76.2286 12.3258C73.9492 12.3258 72.4036 13.2914 71.2446 15.0689H71.1674V12.7894H67.1494V29.5583H71.2446V20.0533C71.2446 17.7738 72.6742 16.1893 74.6447 16.1893C76.4992 16.1893 77.8901 17.3101 77.8901 19.2807V29.5971H81.9856V18.6235C82.024 14.953 79.7058 12.3258 76.2286 12.3258V12.3258ZM60.9288 22.4875C60.9288 24.7287 59.6538 26.2739 57.5674 26.2739C55.6745 26.2739 54.4767 25.1923 54.4767 23.2218V12.7894H50.3811V23.9944C50.3811 27.6649 52.4675 30.0608 56.2153 30.0608C58.5722 30.0608 59.8856 29.1718 61.0063 27.6265H61.1222V29.5971H65.0631V12.7894H60.9675V22.4875H60.9288ZM84.1879 12.7894H88.283V29.5583H84.1879V12.7894ZM84.1879 7.57325H88.283V10.9348H84.1879V7.57325ZM111.503 12.7894L109.069 20.3623C108.529 21.9079 108.103 24.0332 108.103 24.0332H107.987C107.987 24.0332 107.447 21.9079 106.906 20.3623L104.162 12.7894H99.7579L104.278 24.7287C105.244 27.2788 105.553 28.3604 105.553 29.2877C105.553 30.6787 104.819 31.5677 103.081 31.5677H101.497V35.0835H104.124C107.524 35.0835 108.722 33.7313 109.997 30.022L115.908 12.8278H111.503V12.7894ZM95.9329 24.6511V15.7644H98.5604V12.8278H95.9329V7.57325H91.8378V12.7894H89.5196V15.7257H91.8378V25.5784C91.8378 28.7469 94.2331 29.5971 96.3966 29.5971C98.1739 29.5971 98.6376 29.5195 98.6376 29.5195V26.2739H97.5944C96.6284 26.3127 95.9329 25.8878 95.9329 24.6511Z" fill="#020D06"/>
</svg>
