<svg width="172" height="32" viewBox="0 0 172 32" fill="none" xmlns="http://www.w3.org/2000/svg">
<path d="M155.46 32H146.645V0.191763H156.101C156.699 1.80376 155.54 2.89259 155.004 4.14654C155.357 4.25444 155.473 4.0697 155.579 3.91439C157.443 1.19394 160.015 -0.00278807 163.316 0.0446235C166.157 0.0854955 168.4 1.09258 169.873 3.53182C170.991 5.38251 171.292 7.52093 171.317 9.61194C171.402 16.7629 171.343 23.9139 171.336 31.0648C171.336 31.3444 171.385 31.6403 171.138 31.9722H162.557C162.264 31.6534 162.358 31.2725 162.358 30.9128C162.358 24.1297 162.362 17.3449 162.361 10.5618C162.361 8.39396 161.735 7.47189 159.904 7.3133C158.081 7.15472 156.348 8.08333 155.749 9.98143C155.52 10.709 155.449 11.4806 155.452 12.2654C155.473 18.1084 155.462 23.9531 155.46 29.7962C155.46 30.4845 155.46 31.1711 155.46 32Z" fill="#020D06"/>
<path d="M110.345 23.8967C111.249 15.9823 112.972 8.19698 114.089 0.212224H123.097C120.686 10.7964 118.286 21.3349 115.863 31.9681H104.942C102.537 21.4133 100.129 10.8471 97.6958 0.177891H106.663C107.804 8.10216 109.632 15.9022 110.343 23.8984L110.345 23.8967Z" fill="#020D06"/>
<path d="M53.1615 12.5716V18.7695H43.9702V25.6539H53.1386V31.9728H35.083V0.192315H53.1239V6.69914H43.9751V12.5716H53.1615Z" fill="#020D06"/>
<path d="M125.654 31.945V0.192315H143.618V6.70731H134.485V12.5994H143.611V18.7744H134.521V25.5885C137.48 25.855 140.524 25.5362 143.614 25.7782V31.9433H125.654V31.945Z" fill="#020D06"/>
<path d="M95.2002 0.194718C95.4062 2.32333 95.3424 4.42088 95.2313 6.68356H86.1659V12.5724H95.2296V18.7555H86.1789V25.689H95.1839C95.4111 27.8553 95.3065 29.8711 95.2721 31.9703H77.2672V0.194718H95.2002Z" fill="#020D06"/>
<path d="M64.9953 0.192315V25.0981H74.1948V31.9646H56.1751V0.192315H64.9953Z" fill="#020D06"/>
<path d="M15.939 31.993H8.00655C8.00655 30.2306 8.00328 28.5287 8.00655 26.8284C8.01145 24.7456 8.06704 22.6611 8.02126 20.5799C7.83325 11.8905 13.879 4.06268 21.0921 1.07575C21.9815 0.707903 22.8938 0.394006 23.9417 0V8.24143C22.5537 8.96078 21.1984 9.83544 20.0393 10.9962C17.2878 13.7493 16.0567 17.145 15.957 20.951C15.8622 24.5804 15.9357 28.2148 15.9357 31.993H15.939Z" fill="#020D06"/>
<path d="M10.7019 8.11187H0V0.1827H19.6594C16.1837 2.21322 13.133 4.71786 10.7019 8.1135V8.11187Z" fill="#020D06"/>
<path d="M32.0653 12.6904V18.71H24.0201V12.6904H32.0653Z" fill="#020D06"/>
</svg>
