<svg width="117" height="34" viewBox="0 0 117 34" fill="none" xmlns="http://www.w3.org/2000/svg">
<path d="M79.3001 33.3593H85.0319V10.6945H79.3631L79.3001 33.3593ZM5.6373 13.9391V10.6788H0V33.3593H5.65305V22.5861C5.65305 19.436 5.96798 18.3492 6.86554 17.2624C7.26542 16.7775 7.77194 16.3915 8.34556 16.1347C8.91917 15.8779 9.54437 15.7571 10.1723 15.7819C10.9583 15.7578 11.7394 15.914 12.4556 16.2387L15.227 11.1355C14.0061 10.4684 12.6342 10.1267 11.2431 10.1432C10.0258 10.0937 8.82471 10.4356 7.81586 11.1187C6.80701 11.8018 6.04351 12.7903 5.6373 13.9391ZM24.5333 14.8841C27.3834 14.8841 28.7534 17.3412 28.7534 20.1132H19.7778C20.2659 16.6324 22.0453 14.8841 24.5018 14.8841M14.0303 22.1293C14.0303 29.6422 18.3449 33.9106 25.856 33.9106C28.5639 33.9668 31.2513 33.4292 33.7293 32.3355L31.7925 27.6104C30.0637 28.4739 28.1499 28.9011 26.2182 28.8547C22.5177 28.8547 20.4549 27.2797 19.9195 24.2398H34.249C34.3435 23.2003 34.3749 22.208 34.3749 21.0898C34.3749 15.3724 32.0287 10.1905 25.0057 10.1905C17.5733 10.1905 14.1405 16.0654 14.1405 22.1765M36.422 22.1765C36.422 29.6737 41.0043 33.9578 47.9013 33.9578C50.2157 33.9988 52.5093 33.5141 54.6094 32.5403L52.6883 27.6577C51.2884 28.4671 49.6908 28.8707 48.0745 28.8232C44.4843 28.8232 42.0278 26.6024 42.0278 22.019C42.0278 17.7979 44.2323 15.2149 48.1218 15.2149C49.7235 15.1817 51.3034 15.5904 52.6883 16.3962L54.6566 11.5765C52.4809 10.5769 50.1059 10.0867 47.7124 10.1432C40.6893 10.1432 36.3275 15.0101 36.3275 22.1293M104.133 6.58366V10.6945H96.3695V2.61456L90.7322 6.55216V10.6788H87.2365V15.4039H90.7322V26.5236C90.5799 27.5225 90.6646 28.5432 90.9795 29.5032C91.2944 30.4633 91.8306 31.3358 92.5449 32.0502C93.2592 32.7647 94.1315 33.301 95.0913 33.616C96.0511 33.931 97.0715 34.0157 98.0701 33.8633C99.8077 33.8774 101.527 33.5119 103.109 32.7923L101.204 28.0672C100.469 28.5018 99.6325 28.7354 98.7788 28.7445C97.0939 28.7445 96.3695 27.8309 96.3695 26.2086V15.4669H104.133V26.5867C103.98 27.5855 104.065 28.6062 104.38 29.5662C104.695 30.5263 105.231 31.3988 105.945 32.1132C106.66 32.8277 107.532 33.364 108.492 33.679C109.452 33.994 110.472 34.0787 111.471 33.9263C113.214 33.9438 114.939 33.5782 116.525 32.8553L114.636 28.1302C113.9 28.5628 113.064 28.7962 112.211 28.8075C110.526 28.8075 109.801 27.8939 109.801 26.2086V15.4669H115.738V10.7418H109.77V2.61456L104.133 6.58366ZM78.5915 4.59911C78.5946 5.29934 78.8051 5.98295 79.1963 6.56365C79.5875 7.14436 80.1419 7.59613 80.7896 7.86194C81.4372 8.12775 82.1491 8.19568 82.8354 8.05717C83.5216 7.91866 84.1514 7.57991 84.6453 7.08367C85.1392 6.58744 85.4751 5.95596 85.6106 5.26896C85.746 4.58195 85.6749 3.87022 85.4063 3.22358C85.1377 2.57695 84.6836 2.0244 84.1013 1.63569C83.519 1.24698 82.8346 1.03953 82.1345 1.03953C81.1949 1.03953 80.2937 1.41289 79.6293 2.07749C78.9648 2.74209 78.5915 3.64348 78.5915 4.58336M57.0029 4.00059V33.3593H62.7032V22.7593L69.8994 33.3593H77.0326L68.0885 20.759L77.1586 10.6945H69.8364L62.7032 18.995V0L57.0029 4.00059Z" fill="#020D06"/>
</svg>
