<svg width="193" height="20" viewBox="0 0 193 20" fill="none" xmlns="http://www.w3.org/2000/svg">
<path d="M163.225 11.626H184.173V16.6125H163.225V11.626ZM163.225 3.44174H184.173V8.29268H163.225V3.44174ZM182.602 20C186.314 20 188.022 18.4553 188.022 15.7995V13.4688C188.022 12.7371 187.778 12.3848 187.236 11.9241L184.851 9.8645L187.236 7.80488C187.778 7.34417 188.022 7.01897 188.022 6.26016V4.20054C188.022 1.54472 186.314 0 182.602 0H159.458V19.9458H182.602V20ZM122.764 11.626H143.713V16.6125H122.764V11.626ZM122.764 3.44174H143.713V8.29268H122.764V3.44174ZM142.141 20C145.854 20 147.561 18.4553 147.561 15.7995V13.4688C147.561 12.7371 147.317 12.3848 146.775 11.9241L144.39 9.8645L146.775 7.80488C147.317 7.34417 147.561 7.01897 147.561 6.26016V4.20054C147.561 1.54472 145.854 0 142.141 0H118.997V19.9458H142.141V20ZM102.276 0.0542005V16.4499H82.4661V0.0542005H78.6992V15.4472C78.6992 18.2656 80.4065 20 83.794 20H100.921C104.309 20 106.016 18.2656 106.016 15.4472V0.0542005H102.276ZM41.897 8.21138V0.0542005H38.1301V20H41.897V11.7073H61.9783V20H65.7453V0.0542005H61.9783V8.21138H41.897ZM27.1816 3.60434V0.0542005H5.09485C1.70732 0.0542005 0 1.78862 0 4.60705V15.4201C0 18.2385 1.70732 19.9729 5.09485 19.9729H27.1816V16.4499H3.84824V3.60434H27.1816ZM192.304 2.73713C192.005 3.03523 191.626 3.19783 191.192 3.19783C190.759 3.19783 190.379 3.03523 190.081 2.73713C189.783 2.43902 189.621 2.05962 189.621 1.59892C189.621 1.16531 189.783 0.785908 190.081 0.487805C190.379 0.189702 190.759 0.0271003 191.192 0.0271003C191.626 0.0271003 192.005 0.189702 192.304 0.487805C192.602 0.785908 192.764 1.16531 192.764 1.59892C192.764 2.05962 192.602 2.41192 192.304 2.73713ZM190.217 0.650407C189.946 0.921409 189.81 1.24661 189.81 1.62602C189.81 2.00542 189.946 2.33062 190.217 2.60163C190.488 2.87263 190.813 3.00813 191.192 3.00813C191.572 3.00813 191.897 2.87263 192.168 2.60163C192.439 2.33062 192.575 2.00542 192.575 1.62602C192.575 1.24661 192.439 0.921409 192.168 0.650407C191.897 0.379404 191.572 0.243902 191.192 0.243902C190.813 0.243902 190.488 0.379404 190.217 0.650407ZM191.138 0.731707C191.355 0.731707 191.518 0.758808 191.626 0.785908C191.816 0.867209 191.897 1.00271 191.897 1.21951C191.897 1.38211 191.843 1.49051 191.734 1.57182C191.68 1.59892 191.599 1.62602 191.491 1.65312C191.626 1.68022 191.734 1.73442 191.789 1.81572C191.843 1.89702 191.897 2.00542 191.897 2.08672V2.35772C191.897 2.41192 191.897 2.43902 191.924 2.43902V2.46613H191.599V2.43902V2.24932C191.599 2.05962 191.545 1.92412 191.436 1.84282C191.382 1.81572 191.247 1.78862 191.084 1.78862H190.84V2.46613H190.542V0.731707H191.138ZM191.491 1.00271C191.409 0.94851 191.301 0.94851 191.111 0.94851H190.84V1.57182H191.111C191.247 1.57182 191.328 1.57182 191.409 1.54472C191.518 1.49052 191.599 1.40921 191.599 1.27371C191.599 1.13821 191.572 1.05691 191.491 1.00271Z" fill="#020D06"/>
</svg>
