<svg width="140" height="34" viewBox="0 0 140 34" fill="none" xmlns="http://www.w3.org/2000/svg">
<path fill-rule="evenodd" clip-rule="evenodd" d="M26.907 32.8359L17.2338 20.1783C21.4218 18.4967 24.1273 15.2076 24.1273 10.7359C24.1273 3.89891 18.6607 0 10.6924 0H0.741239C0.333558 0 0 0.332609 0 0.73913V33.0761C0 33.2793 0.166779 33.4457 0.37062 33.4457H7.8942C8.09804 33.4457 8.26482 33.2793 8.26482 33.0761V22.6174C8.26482 22.2663 8.72809 22.1185 8.93193 22.3957L16.752 33.2793C16.8261 33.3717 16.9373 33.4272 17.0485 33.4272H26.6105C26.9255 33.4457 27.0923 33.0946 26.907 32.8359ZM10.6553 14.9859H8.61691C8.41307 14.9859 8.24629 14.8196 8.24629 14.6163V7.40978C8.24629 7.20652 8.41307 7.04022 8.61691 7.04022H10.6553C13.5461 7.04022 15.2881 8.59239 15.2881 10.9946C15.2881 13.4337 13.5461 14.9859 10.6553 14.9859Z" fill="#020D06"/>
<path fill-rule="evenodd" clip-rule="evenodd" d="M38.1738 9.42391C31.4285 9.42391 25.5728 14.6348 25.5728 21.712C25.5728 28.8261 31.41 34 38.1738 34C43.5849 34 48.2732 31.4315 49.8669 26.387C49.941 26.1467 49.7557 25.925 49.5148 25.925H42.1209C42.0653 25.925 42.0097 25.962 41.9727 25.9989C41.1573 27.0337 39.9528 27.4217 38.2294 27.4217C36.191 27.4217 34.4306 26.3685 33.6523 24.3913C33.6152 24.2804 33.6893 24.1511 33.819 24.1511H49.9595C50.1448 24.1511 50.3116 24.0033 50.3302 23.8185C51.1826 15.8174 46.346 9.42391 38.1738 9.42391ZM42.0653 19.1804H33.8561C33.7264 19.1804 33.6337 19.0511 33.6893 18.9402C34.5047 17.1109 36.2095 16.113 38.1553 16.113C40.4717 16.113 41.8986 17.6283 42.2321 18.9772C42.2692 19.0696 42.195 19.1804 42.0653 19.1804Z" fill="#020D06"/>
<path fill-rule="evenodd" clip-rule="evenodd" d="M56.5195 12.9163C54.2587 15.1522 52.9986 18.2011 52.9986 21.3793V33.0761C52.9986 33.2793 53.1654 33.4457 53.3692 33.4457H60.5778C60.7816 33.4457 60.9484 33.2793 60.9484 33.0761V21.3978C60.9484 20.3261 61.3746 19.2728 62.1529 18.5152C62.9127 17.7576 63.969 17.3141 65.0437 17.3141C66.1371 17.3141 67.1748 17.7391 67.9346 18.5152C68.6944 19.2728 69.1391 20.3076 69.1391 21.3978V33.0761C69.1391 33.2793 69.3059 33.4457 69.5097 33.4457H76.7183C76.9221 33.4457 77.0889 33.2793 77.0889 33.0761V21.3978C77.0889 18.2196 75.8103 15.1707 73.568 12.9348C71.3072 10.6804 68.2496 9.42391 65.0437 9.42391C61.8564 9.42391 58.7803 10.6804 56.5195 12.9163Z" fill="#020D06"/>
<path fill-rule="evenodd" clip-rule="evenodd" d="M92.2843 9.42391C85.539 9.42391 79.6832 14.6348 79.6832 21.712C79.6832 28.8261 85.5205 34 92.2843 34C97.6953 34 102.384 31.4315 103.977 26.387C104.051 26.1467 103.866 25.925 103.625 25.925H96.2314C96.1758 25.925 96.1202 25.962 96.0831 25.9989C95.2678 27.0337 94.0633 27.4217 92.3399 27.4217C90.3015 27.4217 88.541 26.3685 87.7627 24.3913C87.7257 24.2804 87.7998 24.1511 87.9295 24.1511H104.07C104.255 24.1511 104.422 24.0033 104.441 23.8185C105.293 15.8174 100.456 9.42391 92.2843 9.42391ZM96.1758 19.1804H87.9666C87.8369 19.1804 87.7442 19.0511 87.7998 18.9402C88.6152 17.1109 90.32 16.113 92.2658 16.113C94.5821 16.113 96.009 17.6283 96.3426 18.9772C96.3796 19.0696 96.3055 19.1804 96.1758 19.1804Z" fill="#020D06"/>
<path fill-rule="evenodd" clip-rule="evenodd" d="M104.57 9.42391C104.459 9.42391 104.385 9.49783 104.385 9.6087V9.66413L110.648 33.187C110.686 33.3533 110.834 33.4641 111.001 33.4641H118.691C118.858 33.4641 119.006 33.3533 119.043 33.187L121.804 22.8207C121.86 22.6359 122.119 22.6359 122.156 22.8207L124.917 33.187C124.954 33.3533 125.103 33.4641 125.269 33.4641H132.96C133.127 33.4641 133.275 33.3533 133.312 33.187L139.575 9.66413C139.594 9.57174 139.538 9.46087 139.446 9.44239H131.941C131.774 9.44239 131.626 9.55326 131.589 9.71956L128.642 20.788C128.586 20.9728 128.327 20.9728 128.29 20.788L125.344 9.71956C125.307 9.55326 125.158 9.44239 124.991 9.44239H118.969C118.802 9.44239 118.654 9.55326 118.617 9.71956L115.67 20.788C115.615 20.9728 115.355 20.9728 115.318 20.788L112.372 9.71956C112.335 9.55326 112.187 9.44239 112.02 9.44239H104.57V9.42391Z" fill="#020D06"/>
</svg>
