<svg width="184" height="32" viewBox="0 0 184 32" fill="none" xmlns="http://www.w3.org/2000/svg">
<path d="M2.58846 19.5945V10.2477H0V7.69257L2.58846 7.34508V4.15736L8.17322 3.37291V7.34716H11.877V10.2602H8.17322V19.1243C8.17322 20.7889 8.63723 21.642 10.2748 21.642C10.8574 21.642 11.6523 21.5796 12.058 21.4963V23.6582C11.1633 24.1867 9.24898 24.6362 7.48033 24.6362C4.15112 24.6362 2.59055 23.1693 2.59055 19.5945H2.58846ZM39.8237 8.82866C41.2261 8.82866 41.9835 9.07835 41.9835 14.0347L37.3018 14.3094C37.3642 9.81494 38.0425 8.82866 39.8237 8.82866ZM37.3476 16.3256H47.4143C47.4143 9.23857 44.9798 6.97887 39.9173 6.97887C34.8881 6.97887 31.588 10.2165 31.588 15.7763C31.588 21.5192 34.5801 24.6965 40.3813 24.6965C43.4983 24.6965 46.016 23.3024 46.7984 22.2412V20.5974C45.6269 20.9512 44.4221 21.1801 42.2623 21.1801C39.214 21.1801 37.643 19.5987 37.3476 16.3111V16.3256ZM12.5407 22.7427L14.3302 21.9187V3.54561L12.4471 2.6717V1.13818L19.4093 0.0145653H19.8817V9.20736H20.0689C21.5879 7.83406 23.627 6.97679 25.8951 6.97679C28.7457 6.97679 30.1606 8.39586 30.1606 11.492V21.9166L31.9709 22.7427V24.297H22.7531V22.7427L24.5634 21.9166V12.7551C24.5634 11.0405 23.8143 10.3996 22.2953 10.3996C21.463 10.3996 20.6723 10.5515 19.9857 10.8283V21.9187L21.796 22.7469V24.3012H12.5553V22.7406L12.5407 22.7427Z" fill="#020D06"/>
<path d="M134.717 8.07959V9.61519L136.598 10.4891V21.9333L134.804 22.7656V24.3262H144.007V22.7864L142.214 21.9541V6.97262H141.741L134.717 8.09415V8.07959ZM153.797 21.0323V16.4692L152.491 16.5941C151.19 16.7189 150.125 17.5824 150.125 19.1992C150.125 21.0614 151.148 21.6753 152.226 21.6753C152.851 21.6753 153.485 21.3673 153.795 21.0302L153.797 21.0323ZM149.835 9.2469L148.649 12.6926H145.745V8.26062C147.314 7.77372 149.226 6.97887 152.187 6.97887C156.692 6.97887 159.399 8.31055 159.399 12.0975V21.9187L161.188 22.751V24.0244C160.639 24.3199 159.395 24.6965 158.036 24.6965C156.278 24.6965 154.7 24.1347 154.44 22.3037H154.274C153.525 23.8018 151.527 24.7173 149.426 24.7173C146.429 24.7173 144.536 22.7822 144.536 19.9732C144.536 16.5191 146.804 15.9573 150.508 15.1875L153.733 14.6257V12.4221C153.733 10.254 153.067 9.17615 150.924 9.17615C150.632 9.17615 150.112 9.2136 149.779 9.2469H149.835ZM161.646 22.7448L163.435 21.9333V10.4891L161.552 9.61519V8.09624L168.517 6.99343H168.989V9.24065H169.176C170.695 7.86735 172.734 7.01424 175.002 7.01424C177.853 7.01424 179.268 8.42916 179.268 11.5295V21.9541L181.078 22.7864V24.347H171.86V22.8072L173.671 21.9915V12.7551C173.671 11.0405 172.922 10.3996 171.403 10.3996C170.57 10.3996 169.78 10.5515 169.093 10.8283V21.9187L170.882 22.7469V24.3012H161.685V22.7406L161.646 22.7448ZM126.897 3.56018L125.02 2.70707V1.16731L132.041 0.0436959H132.513V21.4131L134.303 22.3911V23.8476L127.644 24.6175H127.186V22.8696H126.999C126.292 23.7644 124.856 24.7007 122.754 24.7007C119.675 24.7007 115.992 22.7448 115.992 16.2736C115.992 9.46954 119.758 7.01424 124.232 7.01424C125.168 7.01424 126.271 7.22232 126.958 7.7217V3.56018H126.897ZM126.897 21.3299V9.90442C126.46 9.57149 126.002 9.29475 124.983 9.29475C123.227 9.29475 121.883 10.8761 121.883 15.6411C121.883 19.8151 122.944 21.6337 125.166 21.6337C126.03 21.6337 126.514 21.4589 126.893 21.3049L126.897 21.3299ZM57.2459 29.9234C54.1788 29.9234 53.126 28.8414 53.126 27.6762C53.126 26.8647 53.3424 26.3029 53.7752 25.7827H59.7116C61.0994 25.7827 61.7299 26.1988 61.7299 27.0728C61.7341 28.8206 60.7623 29.9234 57.2459 29.9234ZM57.2937 8.94935C58.5214 8.94935 59.312 9.49034 59.312 12.8612C59.312 16.232 58.5193 16.5837 57.3124 16.5837C56.1056 16.5837 55.3274 16.3028 55.3274 12.8653C55.3274 9.43208 56.0973 8.95351 57.3208 8.95351L57.2937 8.94935ZM61.0183 20.664H54.9841C54.339 20.664 53.798 20.1646 53.798 19.582C53.798 19.1243 54.131 18.6457 54.5471 18.3336C55.4626 18.6041 56.2117 18.6873 57.3353 18.6873C61.6841 18.6873 64.6596 16.7106 64.6596 13.0276C64.6596 11.3838 63.973 10.4475 62.891 9.49034V9.3655L65.6792 10.3435L66.0537 10.3643V6.97054H65.7416L61.449 7.82366H61.2097C60.1402 7.42831 58.6504 7.01216 57.2979 7.01216C52.9491 7.01216 49.9403 9.16991 49.9403 12.8341C49.9403 15.0668 51.0639 16.7293 52.7431 17.649V17.8259C51.7735 18.5084 49.9133 19.9108 49.9133 21.7065C49.9133 23.0174 50.7789 24.3137 52.5891 24.7028V24.8838C50.6852 25.2791 48.5524 25.9034 48.5524 28.0882C48.5524 30.3354 51.8088 32 57.1168 32C63.7129 32 66.5677 29.4615 66.5677 25.4456C66.5677 22.1372 64.7366 20.5974 61.012 20.5974L61.0183 20.664ZM103.279 9.636L105.172 10.5099V21.9541L103.383 22.7864V24.347H113.077V22.8072L110.767 21.9749V12.547C111.724 12.0892 112.983 11.9352 114.492 11.9352C114.987 11.9352 115.574 11.9977 115.913 12.0871V7.15781C115.726 7.09539 115.357 7.06626 115.081 7.06626C113.229 7.06626 111.716 8.25853 110.728 10.5203H110.561V6.95806H110.083L103.279 8.07751V9.636ZM95.5381 21.0594V16.4817L94.248 16.6065C92.9579 16.7314 91.8967 17.6053 91.8967 19.2283C91.8967 21.101 92.9163 21.7044 93.9983 21.7044C94.6225 21.7044 95.2593 21.3923 95.5672 21.0594H95.5381ZM91.5638 9.26146L90.3778 12.7155H87.4647V8.26062C89.0461 7.77372 90.9604 6.97887 93.9151 6.97887C98.4303 6.97887 101.135 8.31055 101.135 12.0975V21.9187L102.925 22.751V24.0244C102.384 24.3199 101.135 24.6965 99.7828 24.6965C98.035 24.6965 96.4536 24.1347 96.2039 22.3037H96.0375C95.2884 23.8018 93.2909 24.7173 91.2018 24.7173C88.2117 24.7173 86.3328 22.7822 86.3328 19.9732C86.3328 16.5191 88.6154 15.9573 92.3171 15.1875L95.5589 14.6257V12.4221C95.5589 10.254 94.9055 9.17615 92.7499 9.17615C92.469 9.17615 91.9384 9.2136 91.6013 9.2469L91.5638 9.26146ZM68.3842 10.4891L66.5115 9.61519V8.09624L73.5444 6.99343H74.023V18.8725C74.023 20.7972 74.9656 21.1405 76.3847 21.1405C77.4251 21.1405 77.8412 20.9532 78.403 20.7389V10.487L76.5095 9.61311V8.07959L83.5217 6.96014H83.9795V21.4006L85.8521 22.3786V23.8434L79.0272 24.5925H78.5362L78.5299 22.3453H78.3427C77.2648 23.677 75.4858 24.6549 73.2032 24.6549C69.8116 24.6549 68.3613 22.2412 68.3613 19.3074V10.487L68.3842 10.4891ZM139.294 0C140.959 0 142.301 1.34625 142.301 3.00878C142.301 4.66922 140.955 6.01756 139.292 6.01756C137.628 6.01756 136.275 4.68587 136.275 3.02126C136.275 1.35666 137.628 0.0249691 139.292 0.0249691L139.294 0ZM180.181 23.3794L183.769 23.3877Z" fill="#020D06"/>
</svg>
