<svg width="157" height="24" viewBox="0 0 157 24" fill="none" xmlns="http://www.w3.org/2000/svg">
<path d="M129.811 18.3014L129.506 0.708008H135.053V22.8846H127.078L121.541 4.68635H121.42L121.729 22.8846H116.214V0.708008H124.538L129.69 18.3014H129.811Z" fill="#020D06"/>
<path d="M28.9643 2.78678L25.8954 23.1176H19.8428L23.9958 0.708008H33.9641L38.1037 23.1176H32.0735L29.0897 2.78678H28.9643Z" fill="#020D06"/>
<path d="M55.0967 17.84L57.8654 0.708008H67.0049L67.4887 23.1176H61.8886L61.7407 2.97047H61.6243L57.8789 23.1176H52.1936L48.4438 2.97047H48.3228L48.1839 23.1176H42.5703L43.0676 0.708008H52.2115L54.9758 17.84H55.0967Z" fill="#020D06"/>
<path d="M10.4073 16.796C10.6268 17.3381 10.5596 18.037 10.4566 18.4581C10.2684 19.2018 9.76218 19.9634 8.27478 19.9634C6.86802 19.9634 6.0168 19.157 6.0168 17.9294V15.7611H0.00448176L0 17.4949C0 22.4902 3.93355 24 8.14934 24C12.2038 24 15.5415 22.6156 16.0702 18.8792C16.3435 16.9438 16.1374 15.6759 16.0478 15.1966C15.1025 10.5059 6.59474 9.1036 5.96304 6.48273C5.85552 6.03472 5.88688 5.55535 5.94064 5.29998C6.09744 4.58764 6.58578 3.79914 7.98805 3.79914C9.29625 3.79914 10.0713 4.61004 10.0713 5.83312C10.0713 6.24529 10.0713 7.21747 10.0713 7.21747H15.658V5.64495C15.658 0.76162 11.2765 0 8.10454 0C4.11723 0 0.860184 1.31716 0.264328 4.96397C0.103044 5.972 0.0806422 6.86802 0.313608 7.99253C1.29475 12.5667 9.25145 13.8928 10.4073 16.796Z" fill="#020D06"/>
<path d="M83.2765 16.7558C83.4961 17.2934 83.4244 17.9744 83.3258 18.3955C83.1421 19.1392 82.6404 19.8874 81.1619 19.8874C79.7776 19.8874 78.9308 19.081 78.9308 17.8803L78.9263 15.7298H72.9767L72.9678 17.4412C72.9678 22.3873 76.8655 23.8792 81.0365 23.8792C85.0462 23.8792 88.3525 22.5127 88.8767 18.8122C89.15 16.8902 88.9573 15.6402 88.8588 15.1698C87.9179 10.5239 79.4998 9.1351 78.8726 6.53663C78.7651 6.08861 78.7964 5.6182 78.8502 5.37627C79.0115 4.65497 79.4908 3.88888 80.8797 3.88888C82.1789 3.88888 82.936 4.67738 82.936 5.89597C82.936 6.30366 82.936 7.26688 82.936 7.26688H88.4824V5.7078C88.4824 0.878235 84.1367 0.121094 80.9917 0.121094C77.0492 0.121094 73.819 1.42033 73.2366 5.04475C73.0753 6.03933 73.0574 6.91744 73.2903 8.03747C74.2536 12.5669 82.1341 13.884 83.2765 16.7558Z" fill="#020D06"/>
<path d="M102.097 19.7666C103.651 19.7666 104.135 18.6914 104.243 18.1403C104.287 17.8984 104.301 17.5758 104.296 17.2846V0.699219H109.964V16.7739C109.977 17.1861 109.937 18.0328 109.914 18.2434C109.516 22.4278 106.209 23.7853 102.092 23.7853C97.9705 23.7853 94.6597 22.4278 94.2654 18.2434C94.2475 18.0328 94.2072 17.1816 94.2161 16.7739V0.699219H99.879V17.2801C99.879 17.5713 99.888 17.8984 99.9328 18.1358C100.058 18.6869 100.529 19.7666 102.097 19.7666Z" fill="#020D06"/>
<path d="M148.848 19.5289C150.47 19.5289 151.039 18.503 151.142 17.9071C151.182 17.6517 151.196 17.3381 151.191 17.0559V13.8033H148.893V10.5328H156.84V16.5496C156.836 16.9708 156.827 17.2799 156.76 18.0281C156.388 22.105 152.849 23.561 148.879 23.561C144.901 23.561 141.371 22.105 140.99 18.0281C140.927 17.2799 140.918 16.9708 140.909 16.5496L140.914 7.1145C140.914 6.71577 140.963 6.01239 141.008 5.63606C141.505 1.44715 144.901 0.0986328 148.879 0.0986328C152.853 0.0986328 156.334 1.43819 156.746 5.63606C156.818 6.3484 156.796 7.1145 156.796 7.1145V7.86268H151.146V6.60825C151.151 6.61273 151.137 6.07511 151.075 5.75702C150.98 5.25973 150.55 4.12178 148.839 4.12178C147.204 4.12178 146.729 5.19701 146.608 5.75702C146.541 6.05271 146.514 6.45144 146.514 6.81433V17.0648C146.509 17.3471 146.527 17.6607 146.572 17.9161C146.662 18.503 147.226 19.5289 148.848 19.5289Z" fill="#020D06"/>
</svg>
