<svg width="151" height="48" viewBox="0 0 151 48" fill="none" xmlns="http://www.w3.org/2000/svg">
<path d="M80.5832 4.37358L77.303 6.34169C76.2096 4.70159 74.3508 3.71754 72.3827 3.71754H72.2734C69.1025 3.71754 66.4784 6.34169 66.4784 9.51253C66.4784 9.62187 66.4784 9.73121 66.4784 9.84055C66.4784 9.94989 66.4784 9.94989 66.4784 10.0592C66.4784 13.3394 69.2119 16.0729 72.492 16.0729C74.4601 16.0729 76.3189 15.0888 77.4123 13.4487L80.4738 15.6355C78.615 18.1503 75.6629 19.6811 72.492 19.6811C67.1344 19.6811 62.6515 15.3075 62.5421 9.84055C62.5421 9.73121 62.5421 9.62187 62.5421 9.51253C62.5421 4.26424 66.8064 0 72.0547 0C72.164 0 72.3827 0 72.492 0C75.7722 0 78.8337 1.64009 80.5832 4.37358Z" fill="#020D06"/>
<path d="M94.9066 12.9021C94.9066 13.3394 94.9066 13.6674 94.7973 14.1048H85.5034C85.7221 15.7449 87.2529 16.9476 88.893 16.8383C90.0957 16.8383 91.2984 16.4009 92.1731 15.6355L94.2506 17.9317C92.7198 19.2437 90.7517 20.0091 88.6743 19.8998C88.5649 19.8998 88.4556 19.8998 88.3462 19.8998C84.8474 19.8998 81.8952 16.9476 81.8952 13.4487C81.8952 13.3394 81.8952 13.2301 81.8952 13.0114C81.8952 12.9021 81.8952 12.6834 81.8952 12.574C81.8952 9.07517 84.8474 6.12301 88.3462 6.12301C88.4556 6.12301 88.4556 6.12301 88.5649 6.12301C92.2825 6.01367 94.9066 8.74715 94.9066 12.9021ZM85.6128 11.6993H91.4077C91.2984 10.1686 89.9863 9.07517 88.5649 9.07517C86.9248 9.07517 85.7221 10.1686 85.6128 11.6993Z" fill="#020D06"/>
<path d="M106.825 7.65376V0H110.323V19.4624H106.934V18.041C105.95 19.2437 104.528 19.8998 102.998 19.7904C99.4989 19.6811 96.6561 16.8383 96.6561 13.3394C96.6561 13.2301 96.6561 13.1207 96.6561 12.9021C96.6561 12.7927 96.6561 12.6834 96.6561 12.4647C96.6561 8.96583 99.4989 6.01367 102.998 6.01367C104.419 5.90433 105.841 6.56036 106.825 7.65376ZM100.264 12.9021C100.264 13.0114 100.264 13.0114 100.264 13.1207C100.264 14.9795 101.795 16.5103 103.654 16.5103C105.513 16.5103 107.043 14.9795 107.043 13.1207C107.043 13.0114 107.043 13.0114 107.043 12.9021C107.043 12.7927 107.043 12.7927 107.043 12.6834C107.043 10.8246 105.513 9.29385 103.654 9.29385C101.795 9.29385 100.264 10.8246 100.264 12.6834C100.264 12.6834 100.264 12.7927 100.264 12.9021Z" fill="#020D06"/>
<path d="M126.178 19.4624H122.788V18.041C121.804 19.2437 120.383 19.8998 118.852 19.7904C115.353 19.6811 112.51 16.8383 112.51 13.3394C112.51 13.2301 112.51 13.1207 112.51 12.902C112.51 12.7927 112.51 12.6834 112.51 12.4647C112.51 8.96583 115.353 6.01367 118.852 6.01367C120.383 5.90433 121.804 6.6697 122.788 7.7631V6.34168H126.178V19.4624ZM116.118 12.902C116.118 13.0114 116.118 13.0114 116.118 13.1207C116.118 14.9795 117.649 16.5102 119.508 16.5102C121.367 16.5102 122.898 14.9795 122.898 13.1207C122.898 13.0114 122.898 13.0114 122.898 12.902C122.898 12.7927 122.898 12.7927 122.898 12.6834C122.898 10.8246 121.367 9.29385 119.508 9.29385C117.649 9.29385 116.118 10.8246 116.118 12.6834C116.118 12.6834 116.118 12.7927 116.118 12.902Z" fill="#020D06"/>
<path d="M138.205 6.23235L137.658 9.73121C137.002 9.40319 136.237 9.29385 135.581 9.29385H135.472C134.05 9.29385 132.847 10.4966 132.847 11.918C132.847 12.0273 132.847 12.1367 132.847 12.246V19.3531H129.349V6.23235H132.738V7.65376C133.613 6.45103 134.925 5.79499 136.456 5.90433C137.002 6.01367 137.549 6.12301 138.205 6.23235Z" fill="#020D06"/>
<path d="M149.139 9.94989C147.827 9.29385 146.405 8.96583 144.984 8.85649C143.672 8.85649 143.016 9.29385 143.016 10.0592C143.016 10.8246 144 11.0433 145.203 11.1526L146.405 11.3713C149.248 11.8087 150.779 13.1207 150.779 15.3075C150.779 18.041 148.592 19.7904 144.765 19.7904C142.688 19.8998 140.72 19.3531 138.97 18.2597L140.392 15.6355C141.704 16.5103 143.235 16.9476 144.875 16.9476C146.515 16.9476 147.28 16.5103 147.28 15.7449C147.28 15.0888 146.624 14.7608 145.093 14.5421L144 14.4328C140.939 13.9954 139.517 12.6834 139.517 10.4966C139.517 7.7631 141.595 6.23235 144.984 6.23235C146.843 6.23235 148.702 6.6697 150.451 7.43508L149.139 9.94989Z" fill="#020D06"/>
<path d="M89.7677 29.5216C88.1276 28.5376 86.2688 27.9909 84.41 27.8815C82.3326 27.8815 80.8018 28.7563 80.8018 30.1777C80.8018 31.5991 82.4419 32.0364 84.738 32.3645L85.8314 32.5831C89.221 33.1298 91.8451 34.5513 91.8451 37.8314C91.8451 41.9863 88.1276 43.9544 84.082 43.9544C81.2392 44.0638 78.3964 43.1891 76.1002 41.4396L78.0683 38.3781C79.8178 39.6902 81.8952 40.4556 84.082 40.4556C86.1595 40.4556 87.7996 39.5809 87.7996 38.1595C87.7996 36.8474 86.3781 36.41 83.754 35.9727L82.5513 35.754C79.2711 35.2073 76.7563 33.7859 76.7563 30.287C76.7563 26.3508 80.2551 24.2733 84.3007 24.2733C86.8155 24.2733 89.3303 24.9294 91.5171 26.2415L89.7677 29.5216Z" fill="#020D06"/>
<path d="M98.2961 26.2415C98.2961 27.4442 97.3121 28.4282 96 28.4282C94.7973 28.4282 93.7039 27.4442 93.7039 26.1321C93.7039 24.9294 94.6879 23.836 95.8907 23.836C97.2027 24.0547 98.2961 25.0387 98.2961 26.2415Z" fill="#020D06"/>
<path fill-rule="evenodd" clip-rule="evenodd" d="M94.2506 30.615H97.7494V43.7358H94.2506V30.615Z" fill="#020D06"/>
<path d="M113.166 35.3166V43.6264H109.667V36.41C109.667 34.5513 108.683 33.4579 107.153 33.4579H107.043C105.622 33.4579 104.31 34.6606 104.31 36.1913C104.31 36.3007 104.31 36.41 104.31 36.5194V43.7358H100.811V30.615H104.2V32.1458C105.075 30.9431 106.497 30.1777 108.027 30.287C108.137 30.287 108.137 30.287 108.246 30.287C110.87 30.287 113.166 32.4738 113.166 35.2073C113.166 35.2073 113.166 35.2073 113.166 35.3166Z" fill="#020D06"/>
<path d="M128.911 43.6264H125.522V42.205C124.538 43.4077 123.116 44.0638 121.585 43.9544C118.087 43.8451 115.244 41.0023 115.244 37.5034C115.244 37.3941 115.244 37.2847 115.244 37.0661C115.244 36.9567 115.244 36.8474 115.244 36.6287C115.244 33.1298 118.087 30.1777 121.585 30.1777C123.116 30.0683 124.538 30.8337 125.522 31.9271V30.5057H128.911V43.6264ZM118.852 37.0661C118.852 37.1754 118.852 37.1754 118.852 37.2847C118.852 39.1435 120.383 40.6743 122.241 40.6743C124.1 40.6743 125.631 39.1435 125.631 37.2847C125.631 37.1754 125.631 37.1754 125.631 37.0661C125.631 36.9567 125.631 36.9567 125.631 36.8474C125.631 34.9886 124.1 33.4579 122.241 33.4579C120.383 33.4579 118.852 34.9886 118.852 36.8474C118.852 36.9567 118.852 37.0661 118.852 37.0661Z" fill="#020D06"/>
<path d="M136.018 26.2415C136.018 27.4442 135.034 28.4282 133.722 28.4282C132.519 28.4282 131.426 27.4442 131.426 26.1321C131.426 24.9294 132.41 23.836 133.613 23.836C134.925 24.0547 136.018 25.0387 136.018 26.2415Z" fill="#020D06"/>
<path fill-rule="evenodd" clip-rule="evenodd" d="M131.973 30.615H135.472V43.7358H131.973V30.615Z" fill="#020D06"/>
<path d="M18.1503 29.303C12.4647 29.303 7.87244 24.6014 7.87244 19.0251C7.87244 13.3394 12.574 8.74715 18.1503 8.74715C20.8838 8.74715 23.508 9.84055 25.4761 11.8087L27.6629 13.9954L24.6014 17.0569L22.4146 14.8702C21.3212 13.7768 19.7904 13.1207 18.1503 13.1207C14.8702 13.1207 12.1367 15.8542 12.1367 19.1344C12.1367 22.4146 14.8702 25.1481 18.1503 25.1481C19.7904 25.1481 21.3212 24.492 22.4146 23.3986L25.4761 26.4601C23.508 28.2096 20.8838 29.303 18.1503 29.303ZM18.1503 37.0661C8.20046 37.0661 0 28.8656 0 19.0251C0 14.2141 1.85877 9.62187 5.24829 6.23235C8.63781 2.84283 13.2301 0.984055 18.041 0.984055C22.8519 0.984055 27.4442 2.84283 30.8337 6.23235L33.0205 8.41913L29.959 11.4806L27.7722 9.29385C25.3667 6.6697 21.7585 5.13895 18.1503 5.13895C10.4966 5.13895 4.26424 11.3713 4.26424 19.0251C4.26424 26.5695 10.4966 32.9112 18.1503 32.9112C21.8679 32.9112 25.3667 31.4897 27.9909 28.8656L31.9271 24.9294L34.9886 27.9909L31.0524 31.9271C27.5535 35.2073 22.9613 37.0661 18.1503 37.0661ZM41.3303 40.2369C38.5968 40.2369 35.9727 39.1435 34.0046 37.1754L31.8178 34.9886L34.8793 31.9271L37.0661 34.1139C38.1595 35.2073 39.6902 35.8633 41.3303 35.8633C44.6105 35.8633 47.344 33.1298 47.344 29.8497C47.344 26.5695 44.6105 23.836 41.3303 23.836C39.6902 23.836 38.1595 24.492 37.0661 25.5854L34.0046 22.5239C35.9727 20.5558 38.5968 19.4624 41.3303 19.4624C47.0159 19.4624 51.6082 24.164 51.6082 29.7403C51.6082 35.6446 47.0159 40.2369 41.3303 40.2369ZM41.3303 48C36.5194 48 31.9271 46.1412 28.5376 42.7517L26.3508 40.5649L29.4123 37.5034L31.5991 39.6902C34.2232 42.3143 37.7221 43.7358 41.4396 43.7358C48.9841 43.7358 55.3257 37.5034 55.3257 29.8497C55.3257 22.1959 49.0934 15.9636 41.4396 15.9636C37.7221 15.9636 34.2232 17.385 31.5991 20.0091L27.6629 23.9453L24.6014 20.8838L28.5376 16.9476C31.9271 13.5581 36.5194 11.6993 41.3303 11.6993C51.2802 11.6993 59.3713 19.8998 59.3713 29.8497C59.3713 39.9089 51.2802 48 41.3303 48Z" fill="#020D06"/>
</svg>
