<svg width="113" height="34" viewBox="0 0 113 34" fill="none" xmlns="http://www.w3.org/2000/svg">
<path d="M55.2048 14.914H52.3809V8.60676H55.7013C59.1458 8.80386 59.0216 11.4976 59.0216 11.4976C58.9906 14.8812 55.2048 14.914 55.2048 14.914ZM61.0697 21.9768C61.0697 21.9768 61.1938 18.7575 56.7253 18.7575H52.3809V25.4261H56.7253C56.7253 25.4589 61.0697 25.6889 61.0697 21.9768ZM39.3167 0H73.4202V34H39.3167V0ZM48.2537 29.2367H57.5321C57.5321 29.2367 65.29 29.2696 65.29 22.3382C65.29 22.3382 65.4761 17.6406 60.2629 16.228C60.2629 16.228 63.2419 14.8812 63.2109 11.3333C63.2109 11.3333 63.6763 5.51884 56.3529 4.79614H48.2537V29.2367V29.2367ZM21.753 21.9768C21.753 21.9768 21.8771 18.7575 17.4086 18.7575H13.0642V25.4261H17.4086C17.4086 25.4589 21.753 25.6889 21.753 21.9768ZM19.7049 11.4976C19.7049 11.4976 19.829 8.80386 16.3846 8.60676H13.0642V14.914H15.8881C15.8881 14.914 19.7049 14.8812 19.7049 11.4976ZM0 0H34.1035V34H0V0ZM8.96806 29.2367H18.2464C18.2464 29.2367 26.0043 29.2696 26.0043 22.3382C26.0043 22.3382 26.1905 17.6406 20.9772 16.228C20.9772 16.228 23.9562 14.8812 23.9252 11.3333C23.9252 11.3333 24.3906 5.51884 17.0672 4.79614H8.96806V29.2367ZM112.737 0V34H78.6334V0H112.737ZM105.972 22.601C100.759 26.1488 96.9109 25.6232 96.9109 25.6232C87.7256 25.1633 88.0359 16.9836 88.0359 16.9836C88.4083 8.08116 97.004 8.27826 97.004 8.27826C101.597 8.34396 105.755 11.0377 105.755 11.0377V6.5372C101.969 4.86184 99.3624 4.59903 99.3624 4.59903C94.987 4.17198 92.5665 5.15749 92.5665 5.15749C83.4743 8.11401 83.7536 17.0164 83.7536 17.0164C84.0019 25.6889 90.8288 28.3169 90.8288 28.3169C98.959 31.7005 105.972 27.2986 105.972 27.2986V22.601Z" fill="#020D06"/>
</svg>
